<svg xmlns="http://www.w3.org/2000/svg" width="37" height="37" viewBox="0 0 37 37">
  <g id="Dribbble_black-1" opacity="0.2">
    <path id="Path_1" data-name="Path 1" d="M18.5,0A18.5,18.5,0,1,0,37,18.5,18.5,18.5,0,0,0,18.5,0Zm9.665,16.5a9.854,9.854,0,0,1-.575,5.818,9.646,9.646,0,0,1-.91,1.673,9.94,9.94,0,0,1-1.2,1.458,10.137,10.137,0,0,1-1.46,1.2A9.883,9.883,0,0,1,18.5,28.339a9.931,9.931,0,0,1-3.841-.775,9.9,9.9,0,0,1-4.34-3.569,9.808,9.808,0,0,1-1.486-3.525,9.959,9.959,0,0,1,0-3.967,9.824,9.824,0,0,1,1.486-3.526,9.915,9.915,0,0,1,4.34-3.57,9.771,9.771,0,0,1,1.854-.573,9.965,9.965,0,0,1,3.974,0,9.8,9.8,0,0,1,1.854.573,9.9,9.9,0,0,1,1.676.91,10.087,10.087,0,0,1,1.46,1.2,9.932,9.932,0,0,1,1.2,1.458,9.645,9.645,0,0,1,.91,1.674A9.765,9.765,0,0,1,28.165,16.5Z" fill="#fff" fill-rule="evenodd"/>
    <path id="Path_2" data-name="Path 2" d="M24.064,12.172h0a8.392,8.392,0,0,0-5.565-2.1,8.483,8.483,0,0,0-1.986.236l.014.018a43.232,43.232,0,0,1,3.136,4.89A9.209,9.209,0,0,0,24.064,12.172Zm.943.969a10.861,10.861,0,0,1-4.694,3.329c.2.4.385.81.56,1.22.062.147.123.292.182.436a19.614,19.614,0,0,1,5.858.271l.01,0a8.364,8.364,0,0,0-1.916-5.258Zm-3.438,6.312a36.384,36.384,0,0,1,1.64,6.01,8.416,8.416,0,0,0,3.611-5.644A12.24,12.24,0,0,0,21.569,19.454Zm-1.579.39a34.99,34.99,0,0,1,1.8,6.389,8.431,8.431,0,0,1-8.469-1.114,11.418,11.418,0,0,1,6.613-5.256l.035-.012h0ZM18.732,17.02c.241.472.472.952.684,1.43-.111.032-.223.064-.333.1a13.272,13.272,0,0,0-6.85,5.558,8.371,8.371,0,0,1-2.159-5.622c0-.062,0-.123,0-.185h0q0-.042,0-.083A30.793,30.793,0,0,0,18.732,17.02Zm-.7-1.3a50.664,50.664,0,0,0-3.129-4.849,8.427,8.427,0,0,0-4.65,5.876h.008A31.332,31.332,0,0,0,18.034,15.724Z" fill="#fff" fill-rule="evenodd"/>
  </g>
</svg>
