<svg width="136" height="48" viewBox="0 0 136 48" fill="none" xmlns="http://www.w3.org/2000/svg">
<path d="M0 24C0 10.7452 10.7452 0 24 0C37.2548 0 48 10.7452 48 24C48 37.2548 37.2548 48 24 48C10.7452 48 0 37.2548 0 24Z" fill="#333333"/>
<path d="M19.2004 38.4C21.8514 38.4 24.0004 36.251 24.0004 33.6V28.8H19.2004C16.5494 28.8 14.4004 30.9491 14.4004 33.6C14.4004 36.251 16.5494 38.4 19.2004 38.4Z" fill="#0ACF83"/>
<path d="M14.4004 24.0002C14.4004 21.3492 16.5494 19.2002 19.2004 19.2002H24.0004V28.8002H19.2004C16.5494 28.8002 14.4004 26.6512 14.4004 24.0002Z" fill="#A259FF"/>
<path d="M14.4004 14.4001C14.4004 11.7491 16.5494 9.6001 19.2004 9.6001H24.0004V19.2001H19.2004C16.5494 19.2001 14.4004 17.0511 14.4004 14.4001Z" fill="#F24E1E"/>
<path d="M24 9.6001H28.8C31.451 9.6001 33.6 11.7491 33.6 14.4001C33.6 17.0511 31.451 19.2001 28.8 19.2001H24V9.6001Z" fill="#FF7262"/>
<path d="M33.6 24.0002C33.6 26.6512 31.451 28.8002 28.8 28.8002C26.149 28.8002 24 26.6512 24 24.0002C24 21.3492 26.149 19.2002 28.8 19.2002C31.451 19.2002 33.6 21.3492 33.6 24.0002Z" fill="#1ABCFE"/>
<path d="M79.392 16.2439H86.368V17.3479H80.688V21.2359H86.048V22.3399H80.688V27.5239H79.392V16.2439ZM89.8983 16.2439H91.2103V27.5239H89.8983V16.2439ZM104.52 21.6519V26.8679C104.072 27.1026 103.485 27.2946 102.76 27.4439C102.045 27.5826 101.32 27.6519 100.584 27.6519C99.464 27.6519 98.4987 27.4226 97.688 26.9639C96.8773 26.5053 96.2533 25.8439 95.816 24.9799C95.3893 24.1159 95.176 23.0813 95.176 21.8759C95.176 20.6813 95.3893 19.6519 95.816 18.7879C96.2427 17.9239 96.856 17.2626 97.656 16.8039C98.456 16.3453 99.4 16.1159 100.488 16.1159C101.277 16.1159 102.003 16.2386 102.664 16.4839C103.325 16.7186 103.891 17.0706 104.36 17.5399L103.864 18.5479C103.32 18.0786 102.781 17.7426 102.248 17.5399C101.725 17.3373 101.139 17.2359 100.488 17.2359C99.2187 17.2359 98.2427 17.6359 97.56 18.4359C96.8773 19.2359 96.536 20.3826 96.536 21.8759C96.536 23.4013 96.8827 24.5639 97.576 25.3639C98.2693 26.1533 99.2827 26.5479 100.616 26.5479C101.587 26.5479 102.488 26.4039 103.32 26.1159V22.6759H100.52V21.6519H104.52ZM119.426 16.2439V27.5239H118.226L118.242 18.7879L114.578 25.7319H113.65L109.97 18.8519L109.986 27.5239H108.77V16.2439H109.858L114.13 24.4199L118.354 16.2439H119.426ZM131.199 24.6279H125.311L124.063 27.5239H122.719L127.679 16.2439H128.815L133.775 27.5239H132.447L131.199 24.6279ZM130.735 23.5399L128.255 17.7639L125.775 23.5399H130.735Z" fill="white"/>
</svg>
