<svg width="180" height="54" viewBox="0 0 180 54" fill="none" xmlns="http://www.w3.org/2000/svg">
<mask id="mask0" mask-type="alpha" maskUnits="userSpaceOnUse" x="0" y="0" width="47" height="54">
<path fill-rule="evenodd" clip-rule="evenodd" d="M0 0H46.382V53.0462H0V0Z" fill="white"/>
</mask>
<g mask="url(#mask0)">
<path fill-rule="evenodd" clip-rule="evenodd" d="M37.5474 15.4227H15.1082L15.7864 21.667H37.064L35.6674 39.4666L23.1922 43.428L10.7171 39.4666L9.99196 30.1673H16.5384V34.733L23.3668 36.5593L30.155 34.733L30.6854 27.4614H9.77711L8.38725 9.70214H37.9905L37.5474 15.4227ZM0.00110551 1.75243L3.45225 45.7981C3.49925 46.4629 3.94911 47.0269 4.58025 47.2283L22.6954 52.9757C23.0177 53.0697 23.3668 53.0697 23.6891 52.9757L41.8042 47.2283C42.4354 47.0269 42.8852 46.4629 42.9322 45.7981L46.3767 1.75243C46.4505 0.805714 45.7052 0 44.7518 0H1.62596C0.679248 0 -0.0727516 0.805714 0.00110551 1.75243Z" fill="#EF4D23"/>
</g>
<path d="M87.736 19.1167V30.3967H86.44V25.2287H79.688V30.3967H78.392V19.1167H79.688V24.1087H86.44V19.1167H87.736ZM94.837 20.2367H90.917V19.1167H100.101V20.2367H96.165V30.3967H94.837V20.2367ZM113.936 19.1167V30.3967H112.736L112.752 21.6607L109.088 28.6047H108.16L104.48 21.7247L104.496 30.3967H103.28V19.1167H104.368L108.64 27.2927L112.864 19.1167H113.936ZM118.333 19.1167H119.645V29.2767H125.293V30.3967H118.333V19.1167ZM132.461 23.3247C133.176 23.3247 133.795 23.4741 134.317 23.7727C134.851 24.0714 135.261 24.4927 135.549 25.0367C135.837 25.5701 135.981 26.1887 135.981 26.8927C135.981 27.6074 135.821 28.2367 135.501 28.7807C135.192 29.3247 134.749 29.7514 134.173 30.0607C133.597 30.3594 132.925 30.5087 132.157 30.5087C131.475 30.5087 130.797 30.3861 130.125 30.1407C129.464 29.8847 128.904 29.5434 128.445 29.1167L128.941 28.1087C129.987 28.9727 131.059 29.4047 132.157 29.4047C132.947 29.4047 133.565 29.1807 134.013 28.7327C134.461 28.2847 134.685 27.6767 134.685 26.9087C134.685 26.1621 134.461 25.5594 134.013 25.1007C133.576 24.6421 132.989 24.4127 132.253 24.4127C131.176 24.4127 130.317 24.8501 129.677 25.7247H128.765V19.1167H135.533V20.2047H130.061V24.2207C130.36 23.9327 130.712 23.7141 131.117 23.5647C131.533 23.4047 131.981 23.3247 132.461 23.3247ZM138.055 31.0847L142.135 18.3487L143.207 18.7007L139.127 31.4367L138.055 31.0847ZM150.558 30.5247C149.491 30.5247 148.563 30.2954 147.774 29.8367C146.985 29.3674 146.377 28.7007 145.95 27.8367C145.534 26.9621 145.326 25.9327 145.326 24.7487C145.326 23.5647 145.534 22.5407 145.95 21.6767C146.377 20.8127 146.985 20.1514 147.774 19.6927C148.563 19.2234 149.491 18.9887 150.558 18.9887C151.337 18.9887 152.051 19.1114 152.702 19.3567C153.353 19.5914 153.918 19.9434 154.398 20.4127L153.902 21.4207C153.358 20.9621 152.825 20.6314 152.302 20.4287C151.779 20.2261 151.203 20.1247 150.574 20.1247C149.337 20.1247 148.377 20.5301 147.694 21.3407C147.022 22.1407 146.686 23.2767 146.686 24.7487C146.686 26.2314 147.022 27.3781 147.694 28.1887C148.377 28.9887 149.337 29.3887 150.574 29.3887C151.203 29.3887 151.779 29.2874 152.302 29.0847C152.825 28.8821 153.358 28.5514 153.902 28.0927L154.398 29.1007C153.918 29.5701 153.353 29.9274 152.702 30.1727C152.051 30.4074 151.337 30.5247 150.558 30.5247ZM161.582 30.5247C159.822 30.5247 158.414 30.0501 157.358 29.1007L157.87 28.0927C158.425 28.5621 158.99 28.8981 159.566 29.1007C160.153 29.3034 160.83 29.4047 161.598 29.4047C162.505 29.4047 163.204 29.2287 163.694 28.8767C164.185 28.5247 164.43 28.0287 164.43 27.3887C164.43 27.0154 164.313 26.7114 164.078 26.4767C163.844 26.2421 163.534 26.0554 163.15 25.9167C162.766 25.7781 162.249 25.6341 161.598 25.4847C160.724 25.2821 160.004 25.0687 159.438 24.8447C158.884 24.6207 158.43 24.3007 158.078 23.8847C157.737 23.4687 157.566 22.9247 157.566 22.2527C157.566 21.6127 157.732 21.0474 158.062 20.5567C158.404 20.0554 158.884 19.6714 159.502 19.4047C160.132 19.1274 160.857 18.9887 161.678 18.9887C162.457 18.9887 163.182 19.1114 163.854 19.3567C164.537 19.6021 165.113 19.9541 165.582 20.4127L165.086 21.4207C164.553 20.9621 164.009 20.6314 163.454 20.4287C162.91 20.2154 162.318 20.1087 161.678 20.1087C160.804 20.1087 160.116 20.2954 159.614 20.6687C159.124 21.0314 158.878 21.5434 158.878 22.2047C158.878 22.7701 159.097 23.1967 159.534 23.4847C159.972 23.7727 160.633 24.0181 161.518 24.2207C162.489 24.4554 163.252 24.6741 163.806 24.8767C164.361 25.0687 164.82 25.3621 165.182 25.7567C165.556 26.1514 165.742 26.6794 165.742 27.3407C165.742 27.9807 165.572 28.5407 165.23 29.0207C164.9 29.5007 164.42 29.8741 163.79 30.1407C163.161 30.3967 162.425 30.5247 161.582 30.5247ZM173.057 30.5247C171.297 30.5247 169.889 30.0501 168.833 29.1007L169.345 28.0927C169.9 28.5621 170.465 28.8981 171.041 29.1007C171.628 29.3034 172.305 29.4047 173.073 29.4047C173.98 29.4047 174.679 29.2287 175.169 28.8767C175.66 28.5247 175.905 28.0287 175.905 27.3887C175.905 27.0154 175.788 26.7114 175.553 26.4767C175.319 26.2421 175.009 26.0554 174.625 25.9167C174.241 25.7781 173.724 25.6341 173.073 25.4847C172.199 25.2821 171.479 25.0687 170.913 24.8447C170.359 24.6207 169.905 24.3007 169.553 23.8847C169.212 23.4687 169.041 22.9247 169.041 22.2527C169.041 21.6127 169.207 21.0474 169.537 20.5567C169.879 20.0554 170.359 19.6714 170.977 19.4047C171.607 19.1274 172.332 18.9887 173.153 18.9887C173.932 18.9887 174.657 19.1114 175.329 19.3567C176.012 19.6021 176.588 19.9541 177.057 20.4127L176.561 21.4207C176.028 20.9621 175.484 20.6314 174.929 20.4287C174.385 20.2154 173.793 20.1087 173.153 20.1087C172.279 20.1087 171.591 20.2954 171.089 20.6687C170.599 21.0314 170.353 21.5434 170.353 22.2047C170.353 22.7701 170.572 23.1967 171.009 23.4847C171.447 23.7727 172.108 24.0181 172.993 24.2207C173.964 24.4554 174.727 24.6741 175.281 24.8767C175.836 25.0687 176.295 25.3621 176.657 25.7567C177.031 26.1514 177.217 26.6794 177.217 27.3407C177.217 27.9807 177.047 28.5407 176.705 29.0207C176.375 29.5007 175.895 29.8741 175.265 30.1407C174.636 30.3967 173.9 30.5247 173.057 30.5247Z" fill="white"/>
</svg>
