<svg xmlns="http://www.w3.org/2000/svg" width="37" height="37" viewBox="0 0 37 37">
  <g id="Instagram_black" opacity="0.2">
    <g id="Instagram">
      <path id="Combined-Shape" d="M18.5,0A18.5,18.5,0,1,0,37,18.5,18.5,18.5,0,0,0,18.5,0ZM14.432,8.693c1.052-.048,1.389-.06,4.068-.06h0c2.681,0,3.015.012,4.068.06a7.263,7.263,0,0,1,2.4.458,5.048,5.048,0,0,1,2.886,2.886,7.307,7.307,0,0,1,.458,2.395c.047,1.052.06,1.389.06,4.068s-.012,3.015-.06,4.068a7.311,7.311,0,0,1-.458,2.395,5.055,5.055,0,0,1-2.885,2.886,7.251,7.251,0,0,1-2.4.458c-1.052.048-1.388.06-4.068.06s-3.015-.012-4.068-.06a7.247,7.247,0,0,1-2.4-.458,5.049,5.049,0,0,1-2.885-2.887,7.251,7.251,0,0,1-.458-2.395c-.048-1.052-.06-1.388-.06-4.067s.012-3.016.059-4.069a7.208,7.208,0,0,1,.458-2.395,5.047,5.047,0,0,1,2.887-2.885A7.241,7.241,0,0,1,14.432,8.693Z" fill="#fff" fill-rule="evenodd"/>
      <path id="Combined-Shape_2" d="M17.616,10.411H18.5c2.634,0,2.947.01,3.987.057a5.464,5.464,0,0,1,1.832.34,3.27,3.27,0,0,1,1.872,1.873,5.451,5.451,0,0,1,.34,1.832c.047,1.04.058,1.352.058,3.986s-.01,2.946-.058,3.986a5.459,5.459,0,0,1-.34,1.831,3.272,3.272,0,0,1-1.872,1.871,5.442,5.442,0,0,1-1.832.34c-1.04.047-1.353.058-3.987.058s-2.947-.01-3.987-.058a5.472,5.472,0,0,1-1.832-.34,3.269,3.269,0,0,1-1.873-1.872,5.453,5.453,0,0,1-.34-1.832c-.047-1.04-.057-1.353-.057-3.987s.01-2.946.057-3.986a5.464,5.464,0,0,1,.34-1.832A3.27,3.27,0,0,1,12.682,10.8a5.452,5.452,0,0,1,1.832-.34c.91-.041,1.263-.053,3.1-.056Zm6.152,1.638a1.184,1.184,0,1,0,1.184,1.184,1.184,1.184,0,0,0-1.184-1.184ZM13.434,18.5A5.067,5.067,0,1,1,18.5,23.566,5.067,5.067,0,0,1,13.434,18.5Z" fill="#fff" fill-rule="evenodd"/>
      <path id="Shape" d="M18.5,15.211A3.289,3.289,0,1,1,15.213,18.5,3.289,3.289,0,0,1,18.5,15.211Z" fill="#fff"/>
    </g>
  </g>
</svg>
