<svg width="193" height="44" viewBox="0 0 193 44" fill="none" xmlns="http://www.w3.org/2000/svg">
<mask id="mask0" mask-type="alpha" maskUnits="userSpaceOnUse" x="0" y="0" width="44" height="44">
<path fill-rule="evenodd" clip-rule="evenodd" d="M0 0H43.1102V43.1107H0V0Z" fill="white"/>
</mask>
<g mask="url(#mask0)">
<path fill-rule="evenodd" clip-rule="evenodd" d="M33.8459 43.1132H9.26488C4.14775 43.1132 0 38.9655 0 33.8483V9.26146C0 4.14433 4.14775 -0.00341797 9.26488 -0.00341797H33.8459C38.963 -0.00341797 43.1107 4.14433 43.1107 9.26146V33.8483C43.1107 38.9655 38.963 43.1132 33.8459 43.1132Z" fill="#DB3A5F"/>
</g>
<path fill-rule="evenodd" clip-rule="evenodd" d="M9.54161 27.4622C9.41236 28.0497 9.34186 28.6783 9.34186 29.1895C9.34186 31.2163 10.4346 32.5617 12.7729 32.5617C14.7057 32.5617 16.2744 31.4102 17.4082 29.5537L16.715 32.3208H20.5572L22.7545 23.5142C23.3067 21.2817 24.3642 20.1243 25.9799 20.1243C27.2547 20.1243 28.0361 20.9175 28.0361 22.2158C28.0361 22.5977 28.0067 23.009 27.8657 23.4496L26.7377 27.5033C26.5615 28.085 26.4969 28.6725 26.4969 29.2188C26.4969 31.14 27.6249 32.5441 29.9925 32.5441C32.0194 32.5441 33.635 31.2457 34.528 28.1202L33.0181 27.5386C32.2602 29.6301 31.6081 30.012 31.097 30.012C30.58 30.012 30.3039 29.6653 30.3039 28.9838C30.3039 28.6725 30.3744 28.3258 30.4742 27.9146L31.5729 23.9666C31.849 23.0442 31.9489 22.2217 31.9489 21.4638C31.9489 18.5205 30.1687 16.9753 28.0067 16.9753C25.9799 16.9753 23.9177 18.8025 22.8896 20.7295L23.6475 17.275H17.7784L16.9559 20.3123H19.6995L18.0075 27.0862C16.6856 30.0296 14.2475 30.0825 13.9361 30.0178C13.4367 29.9003 13.1136 29.7123 13.1136 29.0543C13.1136 28.6783 13.1841 28.1378 13.3486 27.4857L15.9277 17.275H9.41236L8.58398 20.3123H11.2982L9.54161 27.4622ZM14.3826 15.1482C15.6516 15.1482 16.7209 14.1495 16.7209 12.8511C16.7209 11.5468 15.6516 10.5481 14.3826 10.5481C13.1136 10.5481 12.0502 11.5468 12.0502 12.8511C12.0502 14.1495 13.1136 15.1482 14.3826 15.1482Z" fill="#FEFEFE"/>
<path d="M75.392 17.2439H76.704V28.5239H75.392V17.2439ZM90.1258 17.2439V28.5239H89.1178L82.3177 19.4519V28.5239H81.0857V17.2439H82.0938L88.8938 26.3159V17.2439H90.1258ZM104.146 17.2439L99.2179 28.5239H98.0819L93.1539 17.2439H94.5299L98.6579 26.8759L102.802 17.2439H104.146ZM107.176 17.2439H108.488V28.5239H107.176V17.2439ZM116.454 28.6519C114.694 28.6519 113.286 28.1773 112.23 27.2279L112.742 26.2199C113.297 26.6893 113.862 27.0253 114.438 27.2279C115.025 27.4306 115.702 27.5319 116.47 27.5319C117.377 27.5319 118.075 27.3559 118.566 27.0039C119.057 26.6519 119.302 26.1559 119.302 25.5159C119.302 25.1426 119.185 24.8386 118.95 24.6039C118.715 24.3693 118.406 24.1826 118.022 24.0439C117.638 23.9053 117.121 23.7613 116.47 23.6119C115.595 23.4093 114.875 23.1959 114.31 22.9719C113.755 22.7479 113.302 22.4279 112.95 22.0119C112.609 21.5959 112.438 21.0519 112.438 20.3799C112.438 19.7399 112.603 19.1746 112.934 18.6839C113.275 18.1826 113.755 17.7986 114.374 17.5319C115.003 17.2546 115.729 17.1159 116.55 17.1159C117.329 17.1159 118.054 17.2386 118.726 17.4839C119.409 17.7293 119.985 18.0813 120.454 18.5399L119.958 19.5479C119.425 19.0893 118.881 18.7586 118.326 18.5559C117.782 18.3426 117.19 18.2359 116.55 18.2359C115.675 18.2359 114.987 18.4226 114.486 18.7959C113.995 19.1586 113.75 19.6706 113.75 20.3319C113.75 20.8973 113.969 21.3239 114.406 21.6119C114.843 21.8999 115.505 22.1453 116.39 22.3479C117.361 22.5826 118.123 22.8013 118.678 23.0039C119.233 23.1959 119.691 23.4893 120.054 23.8839C120.427 24.2786 120.614 24.8066 120.614 25.4679C120.614 26.1079 120.443 26.6679 120.102 27.1479C119.771 27.6279 119.291 28.0013 118.662 28.2679C118.033 28.5239 117.297 28.6519 116.454 28.6519ZM124.345 17.2439H125.657V28.5239H124.345V17.2439ZM134.759 28.6519C133.714 28.6519 132.802 28.4173 132.023 27.9479C131.255 27.4786 130.663 26.8119 130.247 25.9479C129.831 25.0839 129.623 24.0653 129.623 22.8919C129.623 21.7079 129.826 20.6839 130.231 19.8199C130.647 18.9453 131.239 18.2786 132.007 17.8199C132.786 17.3506 133.703 17.1159 134.759 17.1159C135.815 17.1159 136.727 17.3506 137.495 17.8199C138.274 18.2786 138.866 18.9453 139.271 19.8199C139.687 20.6839 139.895 21.7026 139.895 22.8759C139.895 24.0493 139.687 25.0733 139.271 25.9479C138.855 26.8119 138.258 27.4786 137.479 27.9479C136.711 28.4173 135.804 28.6519 134.759 28.6519ZM134.759 27.5319C135.954 27.5319 136.882 27.1319 137.543 26.3319C138.215 25.5213 138.551 24.3693 138.551 22.8759C138.551 21.3826 138.22 20.2359 137.559 19.4359C136.898 18.6359 135.964 18.2359 134.759 18.2359C133.564 18.2359 132.631 18.6413 131.959 19.4519C131.298 20.2519 130.967 21.3933 130.967 22.8759C130.967 24.3586 131.298 25.5053 131.959 26.3159C132.631 27.1266 133.564 27.5319 134.759 27.5319ZM152.898 17.2439V28.5239H151.89L145.09 19.4519V28.5239H143.858V17.2439H144.866L151.666 26.3159V17.2439H152.898ZM164.662 25.6279H158.774L157.526 28.5239H156.182L161.142 17.2439H162.278L167.238 28.5239H165.91L164.662 25.6279ZM164.198 24.5399L161.718 18.7639L159.238 24.5399H164.198ZM170.511 17.2439H174.975C176.159 17.2439 177.076 17.5319 177.727 18.1079C178.388 18.6839 178.719 19.4999 178.719 20.5559C178.719 21.6119 178.388 22.4333 177.727 23.0199C177.065 23.6066 176.148 23.8999 174.975 23.8999H171.823V28.5239H170.511V17.2439ZM174.847 22.8119C176.564 22.8119 177.423 22.0599 177.423 20.5559C177.423 19.0733 176.564 18.3319 174.847 18.3319H171.823V22.8119H174.847ZM182.423 17.2439H186.887C188.071 17.2439 188.989 17.5319 189.639 18.1079C190.301 18.6839 190.631 19.4999 190.631 20.5559C190.631 21.6119 190.301 22.4333 189.639 23.0199C188.978 23.6066 188.061 23.8999 186.887 23.8999H183.735V28.5239H182.423V17.2439ZM186.759 22.8119C188.477 22.8119 189.335 22.0599 189.335 20.5559C189.335 19.0733 188.477 18.3319 186.759 18.3319H183.735V22.8119H186.759Z" fill="white"/>
</svg>
