<svg width="182" height="44" viewBox="0 0 182 44" fill="none" xmlns="http://www.w3.org/2000/svg">
<mask id="mask0" mask-type="alpha" maskUnits="userSpaceOnUse" x="0" y="0" width="44" height="44">
<path fill-rule="evenodd" clip-rule="evenodd" d="M0 0H43.1102V43.109H0V0Z" fill="white"/>
</mask>
<g mask="url(#mask0)">
<path fill-rule="evenodd" clip-rule="evenodd" d="M33.8459 43.109H9.26488C4.14775 43.109 0 38.9613 0 33.8442V9.26317C0 4.14604 4.14775 -0.00170898 9.26488 -0.00170898H33.8459C38.963 -0.00170898 43.1107 4.14604 43.1107 9.26317V33.8442C43.1107 38.9613 38.963 43.109 33.8459 43.109Z" fill="#F0DB4F"/>
</g>
<path fill-rule="evenodd" clip-rule="evenodd" d="M14.4669 32.3893C14.7443 32.5788 15.1095 32.7452 15.5718 32.8932C16.0295 33.0457 16.5473 33.1197 17.1344 33.1197C17.8278 33.1197 18.378 32.9995 18.7848 32.7545C19.1916 32.5049 19.5014 32.1443 19.7094 31.6635C19.9174 31.1873 20.0561 30.5909 20.1255 29.8882C20.1948 29.1809 20.2272 28.3673 20.2272 27.4427V20.106H22.0579V27.4427C22.0579 28.5476 22.007 29.5461 21.9007 30.4476C21.8036 31.3445 21.5817 32.1165 21.235 32.7545C20.8929 33.3925 20.3936 33.8871 19.751 34.2385C19.1084 34.5944 18.23 34.7701 17.1344 34.7701C15.9139 34.7701 14.8737 34.4696 14 33.8733L14.4669 32.3893Z" fill="#323330"/>
<path fill-rule="evenodd" clip-rule="evenodd" d="M33.8287 23.1344C33.6669 22.9449 33.4543 22.7599 33.1769 22.5889C32.9088 22.4086 32.6036 22.2514 32.2662 22.1035C31.9287 21.9648 31.5588 21.8492 31.1613 21.7614C30.7544 21.6735 30.3384 21.6273 29.9038 21.6273C28.7804 21.6273 27.9529 21.8353 27.4351 22.2606C26.9127 22.6813 26.6492 23.2546 26.6492 23.9897C26.6492 24.3826 26.7232 24.7062 26.8711 24.9651C27.0191 25.224 27.2548 25.4413 27.5738 25.6262C27.8974 25.8065 28.295 25.9683 28.7619 26.1024C29.2427 26.2364 29.8021 26.3797 30.4539 26.5277C31.1982 26.6941 31.8732 26.8837 32.4788 27.0871C33.0798 27.2997 33.5976 27.5632 34.0229 27.873C34.4528 28.1827 34.7811 28.5664 35.003 29.0102C35.2249 29.4587 35.3358 30.0088 35.3358 30.6606C35.3358 31.3495 35.2018 31.9505 34.9244 32.459C34.6609 32.9721 34.291 33.3882 33.8195 33.7211C33.3526 34.0493 32.8024 34.2943 32.1645 34.4561C31.5265 34.6087 30.8377 34.6873 30.0887 34.6873C28.9792 34.6873 27.9205 34.5162 26.9266 34.1695C25.928 33.8274 25.0265 33.3189 24.2129 32.6532L25.082 31.1091C25.3039 31.3356 25.5813 31.5714 25.928 31.7979C26.2748 32.0337 26.6677 32.2371 27.1069 32.422C27.5507 32.6023 28.0222 32.7502 28.5308 32.8658C29.0439 32.9814 29.5756 33.0415 30.1303 33.0415C31.1613 33.0415 31.961 32.8566 32.5297 32.4867C33.1029 32.1261 33.3803 31.576 33.3803 30.8456C33.3803 30.4387 33.2971 30.0966 33.1122 29.8146C32.9273 29.5419 32.6591 29.2969 32.3078 29.0934C31.9564 28.8854 31.5172 28.7097 30.9948 28.5572C30.4724 28.4 29.8807 28.2382 29.2104 28.0718C28.4845 27.9007 27.8373 27.7112 27.2779 27.5078C26.7232 27.3043 26.2609 27.064 25.8864 26.7727C25.5166 26.4907 25.2346 26.1393 25.045 25.7325C24.8555 25.3349 24.7584 24.8403 24.7584 24.2763C24.7584 23.5828 24.8832 22.968 25.1467 22.4456C25.4056 21.9093 25.7616 21.4655 26.2193 21.1049C26.6862 20.7304 27.2363 20.4623 27.8697 20.2774C28.5077 20.0925 29.2011 20 29.9454 20C30.9209 20 31.8085 20.1479 32.5851 20.4484C33.3757 20.7489 34.0738 21.1465 34.6886 21.6504L33.8287 23.1344Z" fill="#323330"/>
<path d="M72.872 28.5319L73.832 28.4679C74.3653 28.4253 74.776 28.2386 75.064 27.9079C75.3627 27.5666 75.512 27.1026 75.512 26.5159V18.2439H76.824V26.5319C76.824 27.4599 76.584 28.1853 76.104 28.7079C75.624 29.2306 74.9253 29.5186 74.008 29.5719L72.968 29.6359L72.872 28.5319ZM88.5868 26.6279H82.6988L81.4507 29.5239H80.1067L85.0668 18.2439H86.2028L91.1628 29.5239H89.8348L88.5868 26.6279ZM88.1228 25.5399L85.6428 19.7639L83.1628 25.5399H88.1228ZM103.052 18.2439L98.1241 29.5239H96.9881L92.0601 18.2439H93.4361L97.5641 27.8759L101.708 18.2439H103.052ZM112.443 26.6279H106.555L105.307 29.5239H103.963L108.923 18.2439H110.059L115.019 29.5239H113.691L112.443 26.6279ZM111.979 25.5399L109.499 19.7639L107.019 25.5399H111.979ZM121.782 29.6519C120.022 29.6519 118.614 29.1773 117.558 28.2279L118.07 27.2199C118.625 27.6893 119.19 28.0253 119.766 28.2279C120.353 28.4306 121.03 28.5319 121.798 28.5319C122.705 28.5319 123.404 28.3559 123.894 28.0039C124.385 27.6519 124.63 27.1559 124.63 26.5159C124.63 26.1426 124.513 25.8386 124.278 25.6039C124.044 25.3693 123.734 25.1826 123.35 25.0439C122.966 24.9053 122.449 24.7613 121.798 24.6119C120.924 24.4093 120.204 24.1959 119.638 23.9719C119.084 23.7479 118.63 23.4279 118.278 23.0119C117.937 22.5959 117.766 22.0519 117.766 21.3799C117.766 20.7399 117.932 20.1746 118.262 19.6839C118.604 19.1826 119.084 18.7986 119.702 18.5319C120.332 18.2546 121.057 18.1159 121.878 18.1159C122.657 18.1159 123.382 18.2386 124.054 18.4839C124.737 18.7293 125.313 19.0813 125.782 19.5399L125.286 20.5479C124.753 20.0893 124.209 19.7586 123.654 19.5559C123.11 19.3426 122.518 19.2359 121.878 19.2359C121.004 19.2359 120.316 19.4226 119.814 19.7959C119.324 20.1586 119.078 20.6706 119.078 21.3319C119.078 21.8973 119.297 22.3239 119.734 22.6119C120.172 22.8999 120.833 23.1453 121.718 23.3479C122.689 23.5826 123.452 23.8013 124.006 24.0039C124.561 24.1959 125.02 24.4893 125.382 24.8839C125.756 25.2786 125.942 25.8066 125.942 26.4679C125.942 27.1079 125.772 27.6679 125.43 28.1479C125.1 28.6279 124.62 29.0013 123.99 29.2679C123.361 29.5239 122.625 29.6519 121.782 29.6519ZM134.489 29.6519C133.423 29.6519 132.495 29.4226 131.705 28.9639C130.916 28.4946 130.308 27.8279 129.881 26.9639C129.465 26.0893 129.257 25.0599 129.257 23.8759C129.257 22.6919 129.465 21.6679 129.881 20.8039C130.308 19.9399 130.916 19.2786 131.705 18.8199C132.495 18.3506 133.423 18.1159 134.489 18.1159C135.268 18.1159 135.983 18.2386 136.633 18.4839C137.284 18.7186 137.849 19.0706 138.329 19.5399L137.833 20.5479C137.289 20.0893 136.756 19.7586 136.233 19.5559C135.711 19.3533 135.135 19.2519 134.505 19.2519C133.268 19.2519 132.308 19.6573 131.625 20.4679C130.953 21.2679 130.617 22.4039 130.617 23.8759C130.617 25.3586 130.953 26.5053 131.625 27.3159C132.308 28.1159 133.268 28.5159 134.505 28.5159C135.135 28.5159 135.711 28.4146 136.233 28.2119C136.756 28.0093 137.289 27.6786 137.833 27.2199L138.329 28.2279C137.849 28.6973 137.284 29.0546 136.633 29.2999C135.983 29.5346 135.268 29.6519 134.489 29.6519ZM150.981 29.5239H149.541L147.621 25.9079C147.387 25.4706 147.109 25.1719 146.789 25.0119C146.48 24.8413 146.053 24.7559 145.509 24.7559H143.397V29.5239H142.101V18.2439H146.741C147.968 18.2439 148.901 18.5159 149.541 19.0599C150.192 19.6039 150.517 20.4039 150.517 21.4599C150.517 22.3346 150.267 23.0439 149.765 23.5879C149.275 24.1213 148.571 24.4573 147.653 24.5959C147.941 24.6813 148.192 24.8253 148.405 25.0279C148.629 25.2306 148.832 25.5026 149.013 25.8439L150.981 29.5239ZM146.629 23.6679C147.504 23.6679 148.155 23.4866 148.581 23.1239C149.019 22.7613 149.237 22.2119 149.237 21.4759C149.237 20.7506 149.024 20.2119 148.597 19.8599C148.171 19.5079 147.515 19.3319 146.629 19.3319H143.397V23.6679H146.629ZM154.67 18.2439H155.982V29.5239H154.67V18.2439ZM160.364 18.2439H164.828C166.012 18.2439 166.929 18.5319 167.58 19.1079C168.241 19.6839 168.572 20.4999 168.572 21.5559C168.572 22.6119 168.241 23.4333 167.58 24.0199C166.919 24.6066 166.001 24.8999 164.828 24.8999H161.676V29.5239H160.364V18.2439ZM164.7 23.8119C166.417 23.8119 167.276 23.0599 167.276 21.5559C167.276 20.0733 166.417 19.3319 164.7 19.3319H161.676V23.8119H164.7ZM174.7 19.3639H170.78V18.2439H179.964V19.3639H176.028V29.5239H174.7V19.3639Z" fill="white"/>
</svg>
