<svg xmlns="http://www.w3.org/2000/svg" width="37" height="37" viewBox="0 0 37 37">
  <g id="LinkedIN_black" opacity="0.2">
    <g id="LinkedIN">
      <path id="Combined-Shape" d="M18.5,0A18.5,18.5,0,1,0,37,18.5,18.5,18.5,0,0,0,18.5,0ZM8.881,15.323h4.192v12.6H8.881Zm4.469-3.9A2.178,2.178,0,0,0,11.005,9.25a2.183,2.183,0,1,0-.054,4.353h.027A2.187,2.187,0,0,0,13.35,11.426Zm10.016,3.6c2.759,0,4.827,1.8,4.827,5.67v7.223H24V21.18c0-1.693-.607-2.848-2.124-2.848a2.294,2.294,0,0,0-2.151,1.531,2.865,2.865,0,0,0-.138,1.022V27.92H15.394s.055-11.415,0-12.6h4.193v1.784A4.163,4.163,0,0,1,23.366,15.027Z" fill="#fff" fill-rule="evenodd"/>
    </g>
  </g>
</svg>
