<svg width="161" height="18" viewBox="0 0 161 18" fill="none" xmlns="http://www.w3.org/2000/svg">
<path d="M0.67666 9.78229C0.67666 8.36062 0.984233 7.09615 1.59938 5.98889C2.21452 4.86796 3.06889 3.99992 4.16249 3.38477C5.26975 2.75596 6.52054 2.44155 7.91487 2.44155C9.62361 2.44155 11.0863 2.89266 12.3029 3.79487C13.5195 4.69709 14.3329 5.92738 14.743 7.48575H10.8881C10.5873 6.89794 10.1772 6.45367 9.65779 6.15293C9.13833 5.83852 8.54369 5.68132 7.87386 5.68132C6.79394 5.68132 5.91907 6.05724 5.24924 6.80909C4.57942 7.54726 4.24451 8.53833 4.24451 9.78229C4.24451 11.0263 4.57942 12.0242 5.24924 12.776C5.91907 13.5278 6.79394 13.9038 7.87386 13.9038C8.54369 13.9038 9.13833 13.7466 9.65779 13.4322C10.1772 13.1177 10.5873 12.6666 10.8881 12.0788H14.743C14.3329 13.6372 13.5195 14.8675 12.3029 15.7697C11.0863 16.6583 9.62361 17.1025 7.91487 17.1025C6.52054 17.1025 5.26975 16.795 4.16249 16.1798C3.06889 15.551 2.21452 14.683 1.59938 13.5757C0.984233 12.4684 0.67666 11.204 0.67666 9.78229ZM22.0985 17.164C20.9775 17.164 19.966 16.9248 19.0637 16.4464C18.1752 15.9679 17.4712 15.2844 16.9517 14.3959C16.446 13.5073 16.1931 12.4684 16.1931 11.2791C16.1931 10.1035 16.4528 9.07146 16.9723 8.18291C17.4917 7.2807 18.2025 6.59037 19.1048 6.11192C20.007 5.63347 21.0185 5.39425 22.1395 5.39425C23.2604 5.39425 24.272 5.63347 25.1742 6.11192C26.0764 6.59037 26.7872 7.2807 27.3067 8.18291C27.8262 9.07146 28.0859 10.1035 28.0859 11.2791C28.0859 12.4548 27.8193 13.4937 27.2862 14.3959C26.7667 15.2844 26.0491 15.9679 25.1332 16.4464C24.231 16.9248 23.2194 17.164 22.0985 17.164ZM22.0985 14.1498C22.7683 14.1498 23.3356 13.9038 23.8004 13.4116C24.2788 12.9059 24.518 12.195 24.518 11.2791C24.518 10.3633 24.2857 9.65926 23.8209 9.16714C23.3698 8.66136 22.8093 8.40846 22.1395 8.40846C21.456 8.40846 20.8887 8.65452 20.4376 9.14664C19.9865 9.63876 19.7609 10.3496 19.7609 11.2791C19.7609 12.195 19.9796 12.9059 20.4171 13.4116C20.8682 13.9038 21.4286 14.1498 22.0985 14.1498ZM44.5455 5.43526C45.9672 5.43526 47.095 5.86586 47.9288 6.72707C48.7764 7.58827 49.2001 8.78439 49.2001 10.3154V17H45.7143V10.787C45.7143 10.0489 45.5161 9.48155 45.1197 9.08513C44.7369 8.67503 44.2038 8.46998 43.5203 8.46998C42.8368 8.46998 42.2968 8.67503 41.9004 9.08513C41.5176 9.48155 41.3263 10.0489 41.3263 10.787V17H37.8404V10.787C37.8404 10.0489 37.6422 9.48155 37.2458 9.08513C36.863 8.67503 36.3299 8.46998 35.6464 8.46998C34.9629 8.46998 34.423 8.67503 34.0265 9.08513C33.6438 9.48155 33.4524 10.0489 33.4524 10.787V17H29.9461V5.55829H33.4524V6.99363C33.8078 6.51518 34.2726 6.13926 34.8467 5.86586C35.4209 5.57879 36.0702 5.43526 36.7947 5.43526C37.6559 5.43526 38.4214 5.6198 39.0912 5.98889C39.7747 6.35798 40.3078 6.88427 40.6906 7.56777C41.087 6.93895 41.627 6.42633 42.3105 6.0299C42.994 5.63347 43.739 5.43526 44.5455 5.43526ZM66.2518 5.43526C67.6735 5.43526 68.8013 5.86586 69.6351 6.72707C70.4827 7.58827 70.9064 8.78439 70.9064 10.3154V17H67.4206V10.787C67.4206 10.0489 67.2224 9.48155 66.826 9.08513C66.4432 8.67503 65.9101 8.46998 65.2266 8.46998C64.5431 8.46998 64.0031 8.67503 63.6067 9.08513C63.2239 9.48155 63.0326 10.0489 63.0326 10.787V17H59.5467V10.787C59.5467 10.0489 59.3485 9.48155 58.9521 9.08513C58.5693 8.67503 58.0362 8.46998 57.3527 8.46998C56.6692 8.46998 56.1293 8.67503 55.7328 9.08513C55.3501 9.48155 55.1587 10.0489 55.1587 10.787V17H51.6524V5.55829H55.1587V6.99363C55.5141 6.51518 55.9789 6.13926 56.553 5.86586C57.1272 5.57879 57.7765 5.43526 58.501 5.43526C59.3622 5.43526 60.1277 5.6198 60.7975 5.98889C61.481 6.35798 62.0142 6.88427 62.3969 7.56777C62.7933 6.93895 63.3333 6.42633 64.0168 6.0299C64.7003 5.63347 65.4453 5.43526 66.2518 5.43526ZM75.1221 4.36901C74.507 4.36901 74.0012 4.1913 73.6047 3.83588C73.222 3.46679 73.0306 3.01569 73.0306 2.48256C73.0306 1.93577 73.222 1.48466 73.6047 1.12924C74.0012 0.760153 74.507 0.575609 75.1221 0.575609C75.7236 0.575609 76.2157 0.760153 76.5985 1.12924C76.9949 1.48466 77.1931 1.93577 77.1931 2.48256C77.1931 3.01569 76.9949 3.46679 76.5985 3.83588C76.2157 4.1913 75.7236 4.36901 75.1221 4.36901ZM76.865 5.55829V17H73.3587V5.55829H76.865ZM84.0401 17.164C83.0559 17.164 82.1742 16.9932 81.395 16.6514C80.6158 16.3097 80.0007 15.8449 79.5495 15.2571C79.0984 14.6556 78.8455 13.9858 78.7909 13.2476H82.2562C82.2972 13.6714 82.4749 14.0131 82.7893 14.2729C83.1174 14.5189 83.5275 14.6419 84.0196 14.6419C84.457 14.6419 84.792 14.5531 85.0243 14.3754C85.2704 14.1977 85.3934 13.9584 85.3934 13.6577C85.3934 13.3296 85.2226 13.0836 84.8808 12.9195C84.5391 12.7555 83.9786 12.5846 83.1994 12.4069C82.3792 12.2155 81.6957 12.0173 81.1489 11.8123C80.6158 11.6072 80.151 11.2791 79.7546 10.828C79.3718 10.3633 79.1805 9.74812 79.1805 8.9826C79.1805 8.31278 79.3582 7.7113 79.7136 7.17817C80.0827 6.63138 80.6158 6.20077 81.313 5.88637C82.0101 5.55829 82.844 5.39425 83.8146 5.39425C85.2499 5.39425 86.3777 5.74967 87.1979 6.4605C88.0317 7.17134 88.5102 8.11456 88.6332 9.29017H85.3934C85.3388 8.86641 85.161 8.53833 84.8603 8.30594C84.5732 8.05988 84.1905 7.93685 83.712 7.93685C83.3019 7.93685 82.9875 8.01887 82.7688 8.18291C82.5501 8.34695 82.4407 8.57934 82.4407 8.88008C82.4407 9.20815 82.6116 9.45421 82.9534 9.61825C83.3088 9.78229 83.8556 9.94633 84.5937 10.1104C85.4276 10.3154 86.1179 10.5273 86.6647 10.746C87.2115 10.9511 87.6831 11.2928 88.0796 11.7713C88.476 12.236 88.6742 12.8649 88.6742 13.6577C88.6742 14.3275 88.4897 14.929 88.1206 15.4621C87.7515 15.9953 87.2115 16.4122 86.5007 16.7129C85.8035 17.0137 84.9833 17.164 84.0401 17.164ZM95.474 17.164C94.4897 17.164 93.608 16.9932 92.8288 16.6514C92.0497 16.3097 91.4345 15.8449 90.9834 15.2571C90.5323 14.6556 90.2794 13.9858 90.2247 13.2476H93.69C93.7311 13.6714 93.9088 14.0131 94.2232 14.2729C94.5513 14.5189 94.9614 14.6419 95.4535 14.6419C95.8909 14.6419 96.2258 14.5531 96.4582 14.3754C96.7043 14.1977 96.8273 13.9584 96.8273 13.6577C96.8273 13.3296 96.6564 13.0836 96.3147 12.9195C95.9729 12.7555 95.4125 12.5846 94.6333 12.4069C93.8131 12.2155 93.1296 12.0173 92.5828 11.8123C92.0497 11.6072 91.5849 11.2791 91.1885 10.828C90.8057 10.3633 90.6143 9.74812 90.6143 8.9826C90.6143 8.31278 90.792 7.7113 91.1474 7.17817C91.5165 6.63138 92.0497 6.20077 92.7468 5.88637C93.444 5.55829 94.2779 5.39425 95.2484 5.39425C96.6838 5.39425 97.8115 5.74967 98.6317 6.4605C99.4656 7.17134 99.944 8.11456 100.067 9.29017H96.8273C96.7726 8.86641 96.5949 8.53833 96.2942 8.30594C96.0071 8.05988 95.6243 7.93685 95.1459 7.93685C94.7358 7.93685 94.4214 8.01887 94.2027 8.18291C93.984 8.34695 93.8746 8.57934 93.8746 8.88008C93.8746 9.20815 94.0455 9.45421 94.3872 9.61825C94.7426 9.78229 95.2894 9.94633 96.0276 10.1104C96.8615 10.3154 97.5518 10.5273 98.0986 10.746C98.6454 10.9511 99.117 11.2928 99.5134 11.7713C99.9099 12.236 100.108 12.8649 100.108 13.6577C100.108 14.3275 99.9235 14.929 99.5544 15.4621C99.1854 15.9953 98.6454 16.4122 97.9346 16.7129C97.2374 17.0137 96.4172 17.164 95.474 17.164ZM104.037 4.36901C103.422 4.36901 102.916 4.1913 102.52 3.83588C102.137 3.46679 101.946 3.01569 101.946 2.48256C101.946 1.93577 102.137 1.48466 102.52 1.12924C102.916 0.760153 103.422 0.575609 104.037 0.575609C104.639 0.575609 105.131 0.760153 105.514 1.12924C105.91 1.48466 106.108 1.93577 106.108 2.48256C106.108 3.01569 105.91 3.46679 105.514 3.83588C105.131 4.1913 104.639 4.36901 104.037 4.36901ZM105.78 5.55829V17H102.274V5.55829H105.78ZM113.529 17.164C112.408 17.164 111.397 16.9248 110.495 16.4464C109.606 15.9679 108.902 15.2844 108.383 14.3959C107.877 13.5073 107.624 12.4684 107.624 11.2791C107.624 10.1035 107.884 9.07146 108.403 8.18291C108.923 7.2807 109.633 6.59037 110.536 6.11192C111.438 5.63347 112.449 5.39425 113.57 5.39425C114.691 5.39425 115.703 5.63347 116.605 6.11192C117.507 6.59037 118.218 7.2807 118.738 8.18291C119.257 9.07146 119.517 10.1035 119.517 11.2791C119.517 12.4548 119.25 13.4937 118.717 14.3959C118.198 15.2844 117.48 15.9679 116.564 16.4464C115.662 16.9248 114.65 17.164 113.529 17.164ZM113.529 14.1498C114.199 14.1498 114.766 13.9038 115.231 13.4116C115.71 12.9059 115.949 12.195 115.949 11.2791C115.949 10.3633 115.716 9.65926 115.252 9.16714C114.801 8.66136 114.24 8.40846 113.57 8.40846C112.887 8.40846 112.32 8.65452 111.868 9.14664C111.417 9.63876 111.192 10.3496 111.192 11.2791C111.192 12.195 111.41 12.9059 111.848 13.4116C112.299 13.9038 112.859 14.1498 113.529 14.1498ZM128.349 5.43526C129.688 5.43526 130.754 5.8727 131.547 6.74757C132.354 7.60878 132.757 8.79806 132.757 10.3154V17H129.271V10.787C129.271 10.0215 129.073 9.42687 128.677 9.00311C128.28 8.57934 127.747 8.36745 127.077 8.36745C126.407 8.36745 125.874 8.57934 125.478 9.00311C125.081 9.42687 124.883 10.0215 124.883 10.787V17H121.377V5.55829H124.883V7.07565C125.239 6.56986 125.717 6.17344 126.319 5.88637C126.92 5.58563 127.597 5.43526 128.349 5.43526ZM145.979 11.0741C145.979 11.3885 145.959 11.7234 145.918 12.0788H137.982C138.037 12.8033 138.263 13.357 138.659 13.7397C139.055 14.1225 139.554 14.3139 140.156 14.3139C141.031 14.3139 141.639 13.9448 141.981 13.2066H145.713C145.521 13.9584 145.173 14.6351 144.667 15.2366C144.175 15.8381 143.553 16.3097 142.801 16.6514C142.049 16.9932 141.208 17.164 140.279 17.164C139.158 17.164 138.16 16.9248 137.285 16.4464C136.41 15.9679 135.727 15.2844 135.235 14.3959C134.743 13.5073 134.496 12.4684 134.496 11.2791C134.496 10.0899 134.736 9.05095 135.214 8.16241C135.706 7.27386 136.39 6.59037 137.265 6.11192C138.139 5.63347 139.144 5.39425 140.279 5.39425C141.386 5.39425 142.37 5.62664 143.232 6.09142C144.093 6.55619 144.763 7.21918 145.241 8.08039C145.733 8.94159 145.979 9.93949 145.979 11.0741ZM142.391 10.2949C142.391 9.63876 142.186 9.12613 141.776 8.75705C141.366 8.38796 140.853 8.20342 140.238 8.20342C139.636 8.20342 139.131 8.38796 138.72 8.75705C138.324 9.11247 138.078 9.62509 137.982 10.2949H142.391ZM151.335 7.60878C151.745 6.93895 152.258 6.41266 152.873 6.0299C153.502 5.63347 154.185 5.43526 154.924 5.43526V9.14664H153.96C153.085 9.14664 152.429 9.33802 151.991 9.72078C151.554 10.0899 151.335 10.746 151.335 11.6892V17H147.829V5.55829H151.335V7.60878Z" fill="white"/>
<path d="M158.24 17.164C157.625 17.164 157.119 16.9863 156.723 16.6309C156.34 16.2618 156.148 15.8107 156.148 15.2776C156.148 14.7308 156.34 14.2729 156.723 13.9038C157.119 13.5347 157.625 13.3501 158.24 13.3501C158.841 13.3501 159.334 13.5347 159.716 13.9038C160.113 14.2729 160.311 14.7308 160.311 15.2776C160.311 15.8107 160.113 16.2618 159.716 16.6309C159.334 16.9863 158.841 17.164 158.24 17.164Z" fill="#F91C4C"/>
</svg>
