<svg id="Medium_black" xmlns="http://www.w3.org/2000/svg" width="37" height="37" viewBox="0 0 37 37">
  <g id="Monogram" opacity="0.2">
    <path id="Combined_Shape" data-name="Combined Shape" d="M37,18.5A18.5,18.5,0,1,1,18.5,0,18.5,18.5,0,0,1,37,18.5ZM8.781,11.743a.99.99,0,0,1,.311.825V23.725a1.3,1.3,0,0,1-.334,1.108L6.167,28.049v.424h7.347v-.424l-2.591-3.216a1.351,1.351,0,0,1-.357-1.108v-9.65l6.449,14.4h.749l5.539-14.4V25.552c0,.306,0,.365-.2.566L21.114,28.1v.424h9.673V28.1l-1.923-1.932a.6.6,0,0,1-.219-.566V11.4a.6.6,0,0,1,.219-.566L30.833,8.9V8.479H24.016l-4.86,12.407L13.629,8.479H6.478V8.9Z" fill="#fff" fill-rule="evenodd"/>
  </g>
</svg>
