<svg width="191" height="47" viewBox="0 0 191 47" fill="none" xmlns="http://www.w3.org/2000/svg">
<path fill-rule="evenodd" clip-rule="evenodd" d="M36.8993 47H10.1007C4.52194 47 0 42.4781 0 36.8993V10.0943C0 4.52194 4.52194 0 10.1007 0H36.8993C42.4781 0 47 4.52194 47 10.0943V36.8993C47 42.4781 42.4781 47 36.8993 47Z" fill="#012731"/>
<path fill-rule="evenodd" clip-rule="evenodd" d="M11.658 24.859H17.8098C18.698 24.859 19.449 24.6879 20.0629 24.3392C20.6767 23.9904 21.1273 23.6219 21.4082 23.227C21.689 22.8256 21.911 22.2531 22.0743 21.5161C22.231 20.7725 22.3159 20.2131 22.329 19.838C22.342 19.4761 22.3486 18.9431 22.3486 18.2455C22.3486 14.4814 20.7878 12.5993 17.6661 12.5993H11.658V24.859ZM11.658 36H9V10H17.8882C20.298 10 22.0808 10.7502 23.2498 12.2637C24.4188 13.7707 25 15.758 25 18.206C25 19.0747 24.9804 19.8249 24.9282 20.4566C24.8759 21.0883 24.7257 21.8846 24.4645 22.8322C24.2098 23.7864 23.8571 24.5695 23.4196 25.1749C22.9755 25.7869 22.2963 26.3133 21.3886 26.774C20.4808 27.228 19.3967 27.4649 18.1429 27.4649H11.658V36Z" fill="#5FCAE8"/>
<path fill-rule="evenodd" clip-rule="evenodd" d="M27 30.8883L29.5124 30.7799C29.6013 31.6659 30.0454 32.3542 30.8321 32.8514C31.6252 33.3422 32.5325 33.5844 33.5539 33.5844C34.5817 33.5844 35.47 33.3549 36.225 32.8833C36.9736 32.418 37.3543 31.7487 37.3543 30.8692C37.3543 29.996 37.0307 29.3012 36.3836 28.785C35.7365 28.2687 34.9497 27.8608 34.0171 27.5612C33.0908 27.2617 32.1518 26.943 31.2128 26.6052C30.2674 26.2674 29.4363 25.7447 28.7194 25.0245C27.8375 24.1832 27.3934 23.157 27.3934 21.9524C27.3934 20.735 27.8819 19.6068 28.8463 18.5616C29.8106 17.5226 31.3841 17 33.5539 17C34.3216 17 35.0386 17.0892 35.7047 17.2677C36.3709 17.4525 36.8531 17.6246 37.1386 17.7903L37.57 18.0389L36.7452 20.3143C35.9775 19.7152 34.9751 19.4093 33.7379 19.4093C32.4944 19.4093 31.5681 19.6451 30.959 20.1167C30.3499 20.582 30.0454 21.1748 30.0454 21.895C30.0454 22.6853 30.4261 23.31 31.1938 23.7625C31.9551 24.2214 32.818 24.6038 33.7696 24.9161C34.7213 25.2284 35.673 25.5726 36.6184 25.9614C37.5637 26.3438 38.3631 26.943 39.0166 27.7588C39.6764 28.5746 40 29.6518 40 30.9966C40 32.3415 39.4671 33.5079 38.3885 34.5022C37.3163 35.5029 35.7428 36 33.6808 36C31.6188 36 30.001 35.5092 28.8272 34.5213C27.6598 33.5398 27.0508 32.3287 27 30.8883Z" fill="#5FCAE8"/>
<path d="M78.392 19.1199H82.856C84.04 19.1199 84.9573 19.4079 85.608 19.9839C86.2693 20.5599 86.6 21.3759 86.6 22.4319C86.6 23.4879 86.2693 24.3092 85.608 24.8959C84.9467 25.4826 84.0293 25.7759 82.856 25.7759H79.704V30.3999H78.392V19.1199ZM82.728 24.6879C84.4453 24.6879 85.304 23.9359 85.304 22.4319C85.304 20.9492 84.4453 20.2079 82.728 20.2079H79.704V24.6879H82.728ZM99.6485 19.1199V30.3999H98.3525V25.2319H91.6005V30.3999H90.3045V19.1199H91.6005V24.1119H98.3525V19.1199H99.6485ZM108.75 30.5279C107.704 30.5279 106.792 30.2932 106.014 29.8239C105.246 29.3546 104.654 28.6879 104.238 27.8239C103.822 26.9599 103.614 25.9412 103.614 24.7679C103.614 23.5839 103.816 22.5599 104.222 21.6959C104.638 20.8212 105.23 20.1546 105.998 19.6959C106.776 19.2266 107.694 18.9919 108.75 18.9919C109.806 18.9919 110.718 19.2266 111.486 19.6959C112.264 20.1546 112.856 20.8212 113.262 21.6959C113.678 22.5599 113.886 23.5786 113.886 24.7519C113.886 25.9252 113.678 26.9492 113.262 27.8239C112.846 28.6879 112.248 29.3546 111.47 29.8239C110.702 30.2932 109.795 30.5279 108.75 30.5279ZM108.75 29.4079C109.944 29.4079 110.872 29.0079 111.534 28.2079C112.206 27.3972 112.542 26.2452 112.542 24.7519C112.542 23.2586 112.211 22.1119 111.55 21.3119C110.888 20.5119 109.955 20.1119 108.75 20.1119C107.555 20.1119 106.622 20.5172 105.95 21.3279C105.288 22.1279 104.958 23.2692 104.958 24.7519C104.958 26.2346 105.288 27.3812 105.95 28.1919C106.622 29.0026 107.555 29.4079 108.75 29.4079ZM119.865 20.2399H115.945V19.1199H125.129V20.2399H121.193V30.3999H119.865V20.2399ZM132.325 30.5279C131.279 30.5279 130.367 30.2932 129.589 29.8239C128.821 29.3546 128.229 28.6879 127.813 27.8239C127.397 26.9599 127.189 25.9412 127.189 24.7679C127.189 23.5839 127.391 22.5599 127.797 21.6959C128.213 20.8212 128.805 20.1546 129.573 19.6959C130.351 19.2266 131.269 18.9919 132.325 18.9919C133.381 18.9919 134.293 19.2266 135.061 19.6959C135.839 20.1546 136.431 20.8212 136.837 21.6959C137.253 22.5599 137.461 23.5786 137.461 24.7519C137.461 25.9252 137.253 26.9492 136.837 27.8239C136.421 28.6879 135.823 29.3546 135.045 29.8239C134.277 30.2932 133.37 30.5279 132.325 30.5279ZM132.325 29.4079C133.519 29.4079 134.447 29.0079 135.109 28.2079C135.781 27.3972 136.117 26.2452 136.117 24.7519C136.117 23.2586 135.786 22.1119 135.125 21.3119C134.463 20.5119 133.53 20.1119 132.325 20.1119C131.13 20.1119 130.197 20.5172 129.525 21.3279C128.863 22.1279 128.533 23.2692 128.533 24.7519C128.533 26.2346 128.863 27.3812 129.525 28.1919C130.197 29.0026 131.13 29.4079 132.325 29.4079ZM145.007 30.5279C143.247 30.5279 141.839 30.0532 140.783 29.1039L141.295 28.0959C141.85 28.5652 142.415 28.9012 142.991 29.1039C143.578 29.3066 144.255 29.4079 145.023 29.4079C145.93 29.4079 146.629 29.2319 147.119 28.8799C147.61 28.5279 147.855 28.0319 147.855 27.3919C147.855 27.0186 147.738 26.7146 147.503 26.4799C147.269 26.2452 146.959 26.0586 146.575 25.9199C146.191 25.7812 145.674 25.6372 145.023 25.4879C144.149 25.2852 143.429 25.0719 142.863 24.8479C142.309 24.6239 141.855 24.3039 141.503 23.8879C141.162 23.4719 140.991 22.9279 140.991 22.2559C140.991 21.6159 141.157 21.0506 141.487 20.5599C141.829 20.0586 142.309 19.6746 142.927 19.4079C143.557 19.1306 144.282 18.9919 145.103 18.9919C145.882 18.9919 146.607 19.1146 147.279 19.3599C147.962 19.6052 148.538 19.9572 149.007 20.4159L148.511 21.4239C147.978 20.9652 147.434 20.6346 146.879 20.4319C146.335 20.2186 145.743 20.1119 145.103 20.1119C144.229 20.1119 143.541 20.2986 143.039 20.6719C142.549 21.0346 142.303 21.5466 142.303 22.2079C142.303 22.7732 142.522 23.1999 142.959 23.4879C143.397 23.7759 144.058 24.0212 144.943 24.2239C145.914 24.4586 146.677 24.6772 147.231 24.8799C147.786 25.0719 148.245 25.3652 148.607 25.7599C148.981 26.1546 149.167 26.6826 149.167 27.3439C149.167 27.9839 148.997 28.5439 148.655 29.0239C148.325 29.5039 147.845 29.8772 147.215 30.1439C146.586 30.3999 145.85 30.5279 145.007 30.5279ZM162.242 19.1199V30.3999H160.946V25.2319H154.194V30.3999H152.898V19.1199H154.194V24.1119H160.946V19.1199H162.242ZM171.343 30.5279C170.298 30.5279 169.386 30.2932 168.607 29.8239C167.839 29.3546 167.247 28.6879 166.831 27.8239C166.415 26.9599 166.207 25.9412 166.207 24.7679C166.207 23.5839 166.41 22.5599 166.815 21.6959C167.231 20.8212 167.823 20.1546 168.591 19.6959C169.37 19.2266 170.287 18.9919 171.343 18.9919C172.399 18.9919 173.311 19.2266 174.079 19.6959C174.858 20.1546 175.45 20.8212 175.855 21.6959C176.271 22.5599 176.479 23.5786 176.479 24.7519C176.479 25.9252 176.271 26.9492 175.855 27.8239C175.439 28.6879 174.842 29.3546 174.063 29.8239C173.295 30.2932 172.389 30.5279 171.343 30.5279ZM171.343 29.4079C172.538 29.4079 173.466 29.0079 174.127 28.2079C174.799 27.3972 175.135 26.2452 175.135 24.7519C175.135 23.2586 174.805 22.1119 174.143 21.3119C173.482 20.5119 172.549 20.1119 171.343 20.1119C170.149 20.1119 169.215 20.5172 168.543 21.3279C167.882 22.1279 167.551 23.2692 167.551 24.7519C167.551 26.2346 167.882 27.3812 168.543 28.1919C169.215 29.0026 170.149 29.4079 171.343 29.4079ZM180.442 19.1199H184.906C186.09 19.1199 187.007 19.4079 187.658 19.9839C188.319 20.5599 188.65 21.3759 188.65 22.4319C188.65 23.4879 188.319 24.3092 187.658 24.8959C186.997 25.4826 186.079 25.7759 184.906 25.7759H181.754V30.3999H180.442V19.1199ZM184.778 24.6879C186.495 24.6879 187.354 23.9359 187.354 22.4319C187.354 20.9492 186.495 20.2079 184.778 20.2079H181.754V24.6879H184.778Z" fill="white"/>
</svg>
