<svg width="148" height="47" viewBox="0 0 148 47" fill="none" xmlns="http://www.w3.org/2000/svg">
<path fill-rule="evenodd" clip-rule="evenodd" d="M11.3439 1.54361L26.0032 0L40.6561 1.54361L52 16.7619L26.0032 47L0 16.7619L11.3439 1.54361Z" fill="#FBB215"/>
<path fill-rule="evenodd" clip-rule="evenodd" d="M10.5282 17L26 47L0 17H10.5282Z" fill="#E76D24"/>
<path fill-rule="evenodd" clip-rule="evenodd" d="M41.4692 17L26 47L52 17H41.4692Z" fill="#E76D24"/>
<path fill-rule="evenodd" clip-rule="evenodd" d="M11 17H42L26.5032 47L11 17Z" fill="#FAAD18"/>
<path fill-rule="evenodd" clip-rule="evenodd" d="M27 0L11.8421 1.56553L11 17L27 0Z" fill="#FBD134"/>
<path fill-rule="evenodd" clip-rule="evenodd" d="M26 0L41.1575 1.56553L42 17L26 0Z" fill="#FBD134"/>
<path fill-rule="evenodd" clip-rule="evenodd" d="M52 16L41 1L41.7897 16H52Z" fill="#FAAD18"/>
<path fill-rule="evenodd" clip-rule="evenodd" d="M0 16L11 1L10.2103 16H0Z" fill="#FAAD18"/>
<path fill-rule="evenodd" clip-rule="evenodd" d="M26.5032 0L11 17H42L26.5032 0Z" fill="#FDEDB7"/>
<path d="M81.976 30.5279C80.216 30.5279 78.808 30.0532 77.752 29.1039L78.264 28.0959C78.8187 28.5652 79.384 28.9012 79.96 29.1039C80.5467 29.3066 81.224 29.4079 81.992 29.4079C82.8987 29.4079 83.5973 29.2319 84.088 28.8799C84.5787 28.5279 84.824 28.0319 84.824 27.3919C84.824 27.0186 84.7067 26.7146 84.472 26.4799C84.2373 26.2452 83.928 26.0586 83.544 25.9199C83.16 25.7812 82.6427 25.6372 81.992 25.4879C81.1173 25.2852 80.3973 25.0719 79.832 24.8479C79.2773 24.6239 78.824 24.3039 78.472 23.8879C78.1307 23.4719 77.96 22.9279 77.96 22.2559C77.96 21.6159 78.1253 21.0506 78.456 20.5599C78.7973 20.0586 79.2773 19.6746 79.896 19.4079C80.5253 19.1306 81.2507 18.9919 82.072 18.9919C82.8507 18.9919 83.576 19.1146 84.248 19.3599C84.9307 19.6052 85.5067 19.9572 85.976 20.4159L85.48 21.4239C84.9467 20.9652 84.4027 20.6346 83.848 20.4319C83.304 20.2186 82.712 20.1119 82.072 20.1119C81.1973 20.1119 80.5093 20.2986 80.008 20.6719C79.5173 21.0346 79.272 21.5466 79.272 22.2079C79.272 22.7732 79.4907 23.1999 79.928 23.4879C80.3653 23.7759 81.0267 24.0212 81.912 24.2239C82.8827 24.4586 83.6453 24.6772 84.2 24.8799C84.7547 25.0719 85.2133 25.3652 85.576 25.7599C85.9493 26.1546 86.136 26.6826 86.136 27.3439C86.136 27.9839 85.9653 28.5439 85.624 29.0239C85.2933 29.5039 84.8133 29.8772 84.184 30.1439C83.5547 30.3999 82.8187 30.5279 81.976 30.5279ZM96.987 30.3999L91.179 25.0399V30.3999H89.867V19.1199H91.179V24.3039L96.715 19.1199H98.379L92.491 24.6079L98.683 30.3999H96.987ZM101.514 19.1199H108.65V20.2079H102.81V24.1279H108.33V25.2159H102.81V29.3119H108.65V30.3999H101.514V19.1199ZM114.959 20.2399H111.039V19.1199H120.223V20.2399H116.287V30.3999H114.959V20.2399ZM127.514 30.5279C126.448 30.5279 125.52 30.2986 124.73 29.8399C123.941 29.3706 123.333 28.7039 122.906 27.8399C122.49 26.9652 122.282 25.9359 122.282 24.7519C122.282 23.5679 122.49 22.5439 122.906 21.6799C123.333 20.8159 123.941 20.1546 124.73 19.6959C125.52 19.2266 126.448 18.9919 127.514 18.9919C128.293 18.9919 129.008 19.1146 129.658 19.3599C130.309 19.5946 130.874 19.9466 131.354 20.4159L130.858 21.4239C130.314 20.9652 129.781 20.6346 129.258 20.4319C128.736 20.2292 128.16 20.1279 127.53 20.1279C126.293 20.1279 125.333 20.5332 124.65 21.3439C123.978 22.1439 123.642 23.2799 123.642 24.7519C123.642 26.2346 123.978 27.3812 124.65 28.1919C125.333 28.9919 126.293 29.3919 127.53 29.3919C128.16 29.3919 128.736 29.2906 129.258 29.0879C129.781 28.8852 130.314 28.5546 130.858 28.0959L131.354 29.1039C130.874 29.5732 130.309 29.9306 129.658 30.1759C129.008 30.4106 128.293 30.5279 127.514 30.5279ZM144.47 19.1199V30.3999H143.174V25.2319H136.422V30.3999H135.126V19.1199H136.422V24.1119H143.174V19.1199H144.47Z" fill="white"/>
</svg>
