<svg xmlns="http://www.w3.org/2000/svg" width="37" height="37" viewBox="0 0 37 37">
  <g id="Skype_black" opacity="0.2">
    <g id="Skype">
      <path id="Combined-Shape" d="M0,18.5A18.5,18.5,0,1,0,18.5,0,18.5,18.5,0,0,0,0,18.5Zm28.016.1a9.178,9.178,0,0,1-.217,1.992,5.294,5.294,0,0,1,.567,2.39,5.42,5.42,0,0,1-5.458,5.381,5.5,5.5,0,0,1-2.58-.639,9.614,9.614,0,0,1-1.724.155A9.346,9.346,0,0,1,9.193,18.6a9.225,9.225,0,0,1,.19-1.864,5.308,5.308,0,0,1-.75-2.722,5.42,5.42,0,0,1,5.459-5.383,5.484,5.484,0,0,1,2.9.826A9.586,9.586,0,0,1,18.6,9.323,9.346,9.346,0,0,1,28.016,18.6Z" fill="#fff" fill-rule="evenodd"/>
      <path id="s" d="M23.431,23.038a4.263,4.263,0,0,1-1.913,1.43,7.75,7.75,0,0,1-2.94.511,7.264,7.264,0,0,1-3.37-.7,4.369,4.369,0,0,1-1.549-1.357,2.922,2.922,0,0,1-.6-1.677,1.159,1.159,0,0,1,.392-.875,1.389,1.389,0,0,1,.983-.36,1.257,1.257,0,0,1,.828.284,2.128,2.128,0,0,1,.552.795,4.612,4.612,0,0,0,.54.944,2.093,2.093,0,0,0,.79.6,3.306,3.306,0,0,0,1.367.24,3.353,3.353,0,0,0,1.9-.487,1.356,1.356,0,0,0,.7-1.159,1.137,1.137,0,0,0-.363-.879,2.635,2.635,0,0,0-1-.547c-.428-.13-1.008-.273-1.726-.422a13.772,13.772,0,0,1-2.467-.727,4.059,4.059,0,0,1-1.617-1.166,2.879,2.879,0,0,1-.609-1.861,2.983,2.983,0,0,1,.639-1.877A3.961,3.961,0,0,1,15.781,12.5a8.088,8.088,0,0,1,2.761-.429,7.545,7.545,0,0,1,2.2.286,4.859,4.859,0,0,1,1.554.763,3.341,3.341,0,0,1,.915,1.015A2.215,2.215,0,0,1,23.5,15.2a1.254,1.254,0,0,1-.386.9,1.3,1.3,0,0,1-.966.4,1.2,1.2,0,0,1-.81-.249,3.038,3.038,0,0,1-.563-.738,3.077,3.077,0,0,0-.845-1.031,2.676,2.676,0,0,0-1.572-.357,2.974,2.974,0,0,0-1.63.4,1.059,1.059,0,0,0-.584.89.8.8,0,0,0,.189.539,1.669,1.669,0,0,0,.56.421,4.141,4.141,0,0,0,.758.289c.261.072.7.178,1.3.316.762.16,1.462.342,2.08.538a6.679,6.679,0,0,1,1.612.724,3.19,3.19,0,0,1,1.06,1.1,3.274,3.274,0,0,1,.383,1.636A3.489,3.489,0,0,1,23.431,23.038Z" fill="#fff"/>
    </g>
  </g>
</svg>
