<svg width="22" height="22" viewBox="0 0 22 22" fill="none" xmlns="http://www.w3.org/2000/svg">
<path fill-rule="evenodd" clip-rule="evenodd" d="M18.1494 2.72388L18.1504 2.72243C16.2258 1.02788 13.6989 0 10.9312 0C10.043 0 9.18112 0.10736 8.35546 0.305822L8.37323 0.329603C8.63205 0.675773 10.6239 3.3398 12.4419 6.67316C16.5328 5.14172 18.0978 2.80103 18.1494 2.72388ZM19.3724 3.98156C19.3298 4.04231 17.5715 6.55085 13.2832 8.29968C13.537 8.82022 13.7826 9.35002 14.0095 9.88247C14.0902 10.0735 14.1689 10.2607 14.2458 10.4479C17.929 9.98511 21.5588 10.74 21.8457 10.7997L21.8587 10.8024C21.8337 8.21478 20.9067 5.83994 19.373 3.98069L19.3724 3.98156ZM14.912 12.1705C16.3458 16.1051 16.9284 19.3094 17.0397 19.9672C19.4942 18.3133 21.2373 15.6869 21.7236 12.6448C21.4986 12.5724 18.4403 11.6056 14.912 12.1705ZM12.8638 12.6761C14.402 16.668 15.037 20.0109 15.1989 20.9646C13.887 21.5218 12.445 21.8296 10.9312 21.8296C8.39609 21.8296 6.06847 20.9602 4.21271 19.5191C4.2355 19.4697 6.34171 14.945 12.7913 12.6998C12.8064 12.6943 12.8218 12.6894 12.8372 12.6846L12.8638 12.6761ZM11.2318 9.01248C11.545 9.62537 11.8444 10.247 12.1188 10.8674C11.975 10.9085 11.83 10.951 11.6875 10.9984C5.78846 12.9033 2.79701 18.2028 2.80077 18.2084C1.05942 16.2754 0 13.719 0 10.9148C0 10.8338 0.00266971 10.7547 0.00536203 10.6749C0.00657292 10.639 0.00778839 10.603 0.0087676 10.5666C0.202506 10.574 5.60344 10.6951 11.2318 9.01248ZM10.3262 7.33163C8.43422 3.97504 6.41286 1.2358 6.26722 1.04164C3.21891 2.47905 0.943793 5.28388 0.23437 8.66418L0.244875 8.66428C0.618447 8.66773 5.13299 8.70947 10.3262 7.33163Z" fill="white"/>
</svg>
