<svg width="26" height="25" viewBox="0 0 26 25" fill="none" xmlns="http://www.w3.org/2000/svg">
<path d="M5.75924 7.87793H0.320312V24.2196H5.75924V7.87793Z" fill="white"/>
<path d="M6.11876 2.8227C6.08346 1.2204 4.93765 0 3.07703 0C1.21641 0 0 1.2204 0 2.8227C0 4.3918 1.18046 5.64735 3.00643 5.64735H3.04119C4.93765 5.64735 6.11876 4.3918 6.11876 2.8227Z" fill="white"/>
<path d="M25.3758 14.8497C25.3758 9.83028 22.6926 7.49414 19.1135 7.49414C16.2258 7.49414 14.9329 9.08027 14.2111 10.193V7.87831H8.77148C8.84317 9.41173 8.77148 24.22 8.77148 24.22H14.2111V15.0935C14.2111 14.6051 14.2464 14.1179 14.3902 13.7682C14.7833 12.7925 15.6783 11.7823 17.1809 11.7823C19.1498 11.7823 19.9368 13.2808 19.9368 15.4768V24.2196H25.3756L25.3758 14.8497Z" fill="white"/>
</svg>
