<svg width="25" height="21" viewBox="0 0 25 21" fill="none" xmlns="http://www.w3.org/2000/svg">
<path fill-rule="evenodd" clip-rule="evenodd" d="M2.92499 4.08845C2.95564 3.77856 2.84017 3.47226 2.61407 3.26369L0.310924 0.424162V0H7.46218L12.9897 12.4067L17.8494 0H24.6667V0.424162L22.6975 2.35646C22.5277 2.48889 22.4435 2.70657 22.4787 2.92201V17.1197C22.4435 17.3351 22.5277 17.5528 22.6975 17.6852L24.6206 19.6175V20.0417H14.9474V19.6175L16.9396 17.6381C17.1354 17.4378 17.1354 17.3789 17.1354 17.0725V5.59658L11.5963 19.9945H10.8478L4.399 5.59658V15.2463C4.34524 15.652 4.47689 16.0604 4.75599 16.3538L7.34703 19.5704V19.9945H0V19.5704L2.59104 16.3538C2.8681 16.0599 2.99208 15.6488 2.92499 15.2463V4.08845Z" fill="white"/>
</svg>
