<svg width="21" height="21" viewBox="0 0 21 21" fill="none" xmlns="http://www.w3.org/2000/svg">
<path fill-rule="evenodd" clip-rule="evenodd" d="M9.34516 0.00320008C9.56813 0.00285114 9.80798 0.00295877 10.0668 0.00307492L10.4934 0.00320008C13.9111 0.00320008 14.3161 0.0154669 15.6658 0.0768008C16.9138 0.133868 17.5911 0.342404 18.0423 0.517605C18.6397 0.749608 19.0655 1.02694 19.5133 1.47495C19.9613 1.92295 20.2386 2.34962 20.4711 2.94696C20.6463 3.39764 20.8552 4.07498 20.912 5.32299C20.9733 6.67234 20.9866 7.07767 20.9866 10.4937C20.9866 13.9097 20.9733 14.3151 20.912 15.6644C20.8549 16.9124 20.6463 17.5898 20.4711 18.0405C20.2391 18.6378 19.9613 19.0631 19.5133 19.5109C19.0653 19.9589 18.6399 20.2362 18.0423 20.4682C17.5917 20.6442 16.9138 20.8522 15.6658 20.9093C14.3164 20.9706 13.9111 20.984 10.4934 20.984C7.07554 20.984 6.67047 20.9706 5.32112 20.9093C4.07311 20.8517 3.39577 20.6431 2.9443 20.4679C2.34696 20.2359 1.92029 19.9586 1.47228 19.5106C1.02428 19.0626 0.746941 18.637 0.514405 18.0394C0.339204 17.5887 0.130401 16.9114 0.0736008 15.6634C0.0122668 14.314 0 13.9087 0 10.4905C0 7.07234 0.0122668 6.66914 0.0736008 5.31979C0.130668 4.07178 0.339204 3.39444 0.514405 2.94323C0.746408 2.34589 1.02428 1.91922 1.47228 1.47122C1.92029 1.02321 2.34696 0.745875 2.9443 0.513339C3.3955 0.337337 4.07311 0.129335 5.32112 0.0720008C6.50193 0.0186669 6.95954 0.00266672 9.34516 0V0.00320008ZM17.326 2.12856C16.478 2.12856 15.79 2.81576 15.79 3.66404C15.79 4.51205 16.478 5.20005 17.326 5.20005C18.1741 5.20005 18.8621 4.51205 18.8621 3.66404C18.8621 2.81603 18.1741 2.12802 17.326 2.12802V2.12856ZM3.92004 10.4966C3.92004 6.86656 6.86312 3.92338 10.4932 3.92324C14.1233 3.92324 17.0658 6.86647 17.0658 10.4966C17.0658 14.1268 14.1236 17.0687 10.4934 17.0687C6.86327 17.0687 3.92004 14.1268 3.92004 10.4966Z" fill="white"/>
<path d="M10.4933 6.22998C12.8496 6.22998 14.76 8.14013 14.76 10.4967C14.76 12.853 12.8496 14.7634 10.4933 14.7634C8.13672 14.7634 6.22656 12.853 6.22656 10.4967C6.22656 8.14013 8.13672 6.22998 10.4933 6.22998Z" fill="white"/>
</svg>
