<svg width="26" height="26" viewBox="0 0 26 26" fill="none" xmlns="http://www.w3.org/2000/svg">
<path fill-rule="evenodd" clip-rule="evenodd" d="M25.1454 12.9328C25.1454 13.8201 25.0491 14.6837 24.864 15.5176C25.3351 16.4524 25.6 17.5044 25.6 18.6187C25.6 22.4736 22.4301 25.6 18.5197 25.6C17.308 25.6 16.1701 25.2988 15.1722 24.7706C14.4467 24.9026 13.7001 24.9724 12.9355 24.9724C6.19229 24.9724 0.725494 19.5832 0.725494 12.9328C0.725494 12.1048 0.811289 11.2947 0.972342 10.5142C0.355221 9.47555 0 8.2707 0 6.98276C0 3.12488 3.1699 0 7.08184 0C8.4651 0 9.75654 0.393207 10.8478 1.0713C11.5281 0.955567 12.225 0.894731 12.9355 0.894731C19.6802 0.894731 25.1454 6.28538 25.1454 12.9328ZM16.7165 20.5417C17.8002 20.0995 18.6341 19.4763 19.1985 18.687C19.7645 17.8961 20.0535 16.9925 20.0535 16.0013C20.0535 15.1718 19.8864 14.4596 19.5568 13.8795C19.2271 13.3037 18.765 12.823 18.181 12.4476C17.6061 12.0781 16.9046 11.7636 16.0903 11.5083C15.2881 11.2546 14.3805 11.0187 13.3916 10.811C12.6104 10.6329 12.0414 10.4949 11.7028 10.4014C11.3716 10.3124 11.0405 10.1848 10.7199 10.026C10.4098 9.87171 10.1645 9.69068 9.99288 9.47998C9.82731 9.28412 9.74754 9.05413 9.74754 8.78111C9.74754 8.33301 9.99589 7.95464 10.5046 7.62672C11.033 7.28396 11.7464 7.11184 12.6194 7.11184C13.5632 7.11184 14.248 7.26615 14.6589 7.57479C15.0819 7.89232 15.4506 8.34191 15.7547 8.91169C16.0181 9.35683 16.2559 9.66843 16.4847 9.86874C16.7285 10.0824 17.0838 10.1922 17.5353 10.1922C18.032 10.1922 18.455 10.0186 18.7891 9.67436C19.1218 9.33457 19.2903 8.94285 19.2903 8.51255C19.2903 8.06592 19.1609 7.60446 18.908 7.14003C18.6582 6.68005 18.2578 6.23937 17.7204 5.8239C17.1876 5.41289 16.5103 5.08052 15.705 4.83421C14.9043 4.5879 13.9455 4.46326 12.8557 4.46326C11.4905 4.46326 10.2864 4.65022 9.27341 5.01968C8.24537 5.39212 7.44763 5.94112 6.90276 6.64296C6.35186 7.34925 6.07341 8.16979 6.07341 9.07788C6.07341 10.032 6.33982 10.8436 6.86362 11.492C7.3799 12.1286 8.08582 12.6375 8.96184 13.004C9.81677 13.3646 10.893 13.6806 12.1618 13.9477C13.0935 14.1406 13.8461 14.3261 14.4015 14.4952C14.9329 14.6614 15.3709 14.8988 15.705 15.2045C16.0211 15.4983 16.1761 15.8722 16.1761 16.3455C16.1761 16.9479 15.8811 17.4406 15.2715 17.8486C14.6499 18.267 13.822 18.4807 12.8121 18.4807C12.0791 18.4807 11.4815 18.3739 11.039 18.1691C10.5995 17.9629 10.2548 17.7002 10.014 17.3857C9.7656 17.0637 9.53079 16.6512 9.31405 16.1615C9.11988 15.7149 8.87905 15.3662 8.59758 15.1303C8.30407 14.8855 7.94133 14.7623 7.52289 14.7623C7.01113 14.7623 6.58216 14.9181 6.24801 15.2297C5.91085 15.5428 5.73926 15.9256 5.73926 16.3648C5.73926 17.0726 6.00116 17.8041 6.52044 18.5401C7.03371 19.2731 7.70953 19.8636 8.52985 20.2999C9.6783 20.9008 11.1489 21.205 12.9024 21.205C14.3639 21.205 15.6463 20.9809 16.7165 20.5417Z" fill="white"/>
</svg>
