<svg xmlns="http://www.w3.org/2000/svg" width="37" height="37" viewBox="0 0 37 37">
  <g id="Twitter_black" opacity="0.2">
    <g id="Twitter">
      <path id="Combined-Shape" d="M18.5,0A18.5,18.5,0,1,0,37,18.5,18.5,18.5,0,0,0,18.5,0Zm-.515,15.677-.039-.64a3.74,3.74,0,0,1,2.523-3.762,4.42,4.42,0,0,1,2.265-.052,5.271,5.271,0,0,1,1.1.575l.634.431.7-.222a7.224,7.224,0,0,0,1.139-.444c.22-.118.414-.183.414-.144a3.8,3.8,0,0,1-.88,1.4c-.543.588-.388.64.712.248.66-.222.673-.222.544.026a8.533,8.533,0,0,1-.906,1.006c-.725.719-.763.8-.763,1.4a13.475,13.475,0,0,1-.88,3.919,11.36,11.36,0,0,1-4.309,5.069,10.931,10.931,0,0,1-8.489.967,9.846,9.846,0,0,1-2.5-1.15,3.829,3.829,0,0,1,1.061-.1,7.286,7.286,0,0,0,3.468-.967l.7-.418-.8-.274a3.912,3.912,0,0,1-2.42-2.143c-.078-.274-.052-.287.673-.287l.75-.013-.634-.3a4.179,4.179,0,0,1-1.773-1.672,4.68,4.68,0,0,1-.466-1.751,1.526,1.526,0,0,1,.608.144c.893.327,1.009.248.492-.3a3.77,3.77,0,0,1-.8-3.867l.22-.627.854.849a10.525,10.525,0,0,0,6.16,3.031Z" fill="#fff" fill-rule="evenodd"/>
    </g>
  </g>
</svg>
