<svg width="194" height="48" viewBox="0 0 194 48" fill="none" xmlns="http://www.w3.org/2000/svg">
<path fill-rule="evenodd" clip-rule="evenodd" d="M44.1241 12.2208C44.233 12.9766 44.2843 13.7772 44.2843 14.6483C44.2843 17.0245 43.8359 19.7082 42.4973 23.0581L35.3173 43.8167C42.3051 39.7431 47 32.1724 47 23.5064C47 19.4136 45.9624 15.5706 44.1241 12.2208ZM23.9163 25.556L16.8644 46.0457C18.9653 46.6733 21.1942 47.0064 23.5 47.0064C26.2413 47.0064 28.8674 46.5324 31.3077 45.6742L31.1476 45.3475L23.9163 25.556ZM39.3716 22.3151C39.3716 19.4072 38.3276 17.396 37.4309 15.8332C36.246 13.8989 35.1251 12.2592 35.1251 10.3185C35.1251 8.15999 36.7648 6.14881 39.077 6.14881L39.378 6.17443C35.1892 2.33783 29.6232 0 23.5064 0C15.4361 0 8.32011 4.07359 4.0864 10.2672C5.85418 10.2993 11.6507 10.3185 11.6507 10.3185C12.9125 10.248 13.0598 12.1055 11.7916 12.2592C11.7916 12.2592 10.5234 12.4065 9.10153 12.4834L17.665 37.9433L22.8083 22.5136L19.1446 12.4834C17.8764 12.4065 16.6787 12.2592 16.6787 12.2592C15.4169 12.1823 15.5642 10.248 16.8324 10.3185H29.2901C30.5519 10.248 30.6992 12.1055 29.431 12.2592C29.431 12.2592 28.1629 12.4065 26.7473 12.4834L35.2404 37.7448L37.5846 29.9178C38.7696 26.8562 39.3716 24.3327 39.3716 22.3151ZM0 23.5064C0 32.8001 5.40583 40.8512 13.252 44.643L2.03679 13.9373C0.730172 16.8644 0 20.0925 0 23.5064Z" fill="#3880C2"/>
<path d="M94.072 19.1189L90.136 30.3989H89.016L85.8 21.1669L82.584 30.3989H81.48L77.528 19.1189H78.856L82.056 28.5429L85.336 19.1189L86.328 19.1349L89.56 28.5589L92.792 19.1189H94.072ZM102.071 30.5269C101.026 30.5269 100.114 30.2923 99.3354 29.8229C98.5674 29.3536 97.9754 28.6869 97.5594 27.8229C97.1434 26.9589 96.9354 25.9403 96.9354 24.7669C96.9354 23.5829 97.138 22.5589 97.5434 21.6949C97.9594 20.8203 98.5514 20.1536 99.3194 19.6949C100.098 19.2256 101.015 18.9909 102.071 18.9909C103.127 18.9909 104.039 19.2256 104.807 19.6949C105.586 20.1536 106.178 20.8203 106.583 21.6949C106.999 22.5589 107.207 23.5776 107.207 24.7509C107.207 25.9243 106.999 26.9483 106.583 27.8229C106.167 28.6869 105.57 29.3536 104.791 29.8229C104.023 30.2923 103.117 30.5269 102.071 30.5269ZM102.071 29.4069C103.266 29.4069 104.194 29.0069 104.855 28.2069C105.527 27.3963 105.863 26.2443 105.863 24.7509C105.863 23.2576 105.533 22.1109 104.871 21.3109C104.21 20.5109 103.277 20.1109 102.071 20.1109C100.877 20.1109 99.9434 20.5163 99.2714 21.3269C98.61 22.1269 98.2794 23.2683 98.2794 24.7509C98.2794 26.2336 98.61 27.3803 99.2714 28.1909C99.9434 29.0016 100.877 29.4069 102.071 29.4069ZM120.05 30.3989H118.61L116.69 26.7829C116.455 26.3456 116.178 26.0469 115.858 25.8869C115.549 25.7163 115.122 25.6309 114.578 25.6309H112.466V30.3989H111.17V19.1189H115.81C117.037 19.1189 117.97 19.3909 118.61 19.9349C119.261 20.4789 119.586 21.2789 119.586 22.3349C119.586 23.2096 119.335 23.9189 118.834 24.4629C118.343 24.9963 117.639 25.3323 116.722 25.4709C117.01 25.5563 117.261 25.7003 117.474 25.9029C117.698 26.1056 117.901 26.3776 118.082 26.7189L120.05 30.3989ZM115.698 24.5429C116.573 24.5429 117.223 24.3616 117.65 23.9989C118.087 23.6363 118.306 23.0869 118.306 22.3509C118.306 21.6256 118.093 21.0869 117.666 20.7349C117.239 20.3829 116.583 20.2069 115.698 20.2069H112.466V24.5429H115.698ZM123.739 19.1189H127.531C129.334 19.1189 130.726 19.6096 131.707 20.5909C132.699 21.5616 133.195 22.9483 133.195 24.7509C133.195 26.5536 132.699 27.9456 131.707 28.9269C130.726 29.9083 129.334 30.3989 127.531 30.3989H123.739V19.1189ZM127.451 29.2789C130.374 29.2789 131.835 27.7696 131.835 24.7509C131.835 21.7429 130.374 20.2389 127.451 20.2389H125.051V29.2789H127.451ZM137.167 19.1189H141.631C142.815 19.1189 143.732 19.4069 144.383 19.9829C145.044 20.5589 145.375 21.3749 145.375 22.4309C145.375 23.4869 145.044 24.3083 144.383 24.8949C143.722 25.4816 142.804 25.7749 141.631 25.7749H138.479V30.3989H137.167V19.1189ZM141.503 24.6869C143.22 24.6869 144.079 23.9349 144.079 22.4309C144.079 20.9483 143.22 20.2069 141.503 20.2069H138.479V24.6869H141.503ZM157.96 30.3989H156.52L154.6 26.7829C154.365 26.3456 154.088 26.0469 153.768 25.8869C153.458 25.7163 153.032 25.6309 152.488 25.6309H150.376V30.3989H149.08V19.1189H153.72C154.946 19.1189 155.88 19.3909 156.52 19.9349C157.17 20.4789 157.496 21.2789 157.496 22.3349C157.496 23.2096 157.245 23.9189 156.744 24.4629C156.253 24.9963 155.549 25.3323 154.632 25.4709C154.92 25.5563 155.17 25.7003 155.384 25.9029C155.608 26.1056 155.81 26.3776 155.992 26.7189L157.96 30.3989ZM153.608 24.5429C154.482 24.5429 155.133 24.3616 155.56 23.9989C155.997 23.6363 156.216 23.0869 156.216 22.3509C156.216 21.6256 156.002 21.0869 155.576 20.7349C155.149 20.3829 154.493 20.2069 153.608 20.2069H150.376V24.5429H153.608ZM161.648 19.1189H168.784V20.2069H162.944V24.1269H168.464V25.2149H162.944V29.3109H168.784V30.3989H161.648V19.1189ZM175.988 30.5269C174.228 30.5269 172.82 30.0523 171.764 29.1029L172.276 28.0949C172.831 28.5643 173.396 28.9003 173.972 29.1029C174.559 29.3056 175.236 29.4069 176.004 29.4069C176.911 29.4069 177.61 29.2309 178.1 28.8789C178.591 28.5269 178.836 28.0309 178.836 27.3909C178.836 27.0176 178.719 26.7136 178.484 26.4789C178.25 26.2443 177.94 26.0576 177.556 25.9189C177.172 25.7803 176.655 25.6363 176.004 25.4869C175.13 25.2843 174.41 25.0709 173.844 24.8469C173.29 24.6229 172.836 24.3029 172.484 23.8869C172.143 23.4709 171.972 22.9269 171.972 22.2549C171.972 21.6149 172.138 21.0496 172.468 20.5589C172.81 20.0576 173.29 19.6736 173.908 19.4069C174.538 19.1296 175.263 18.9909 176.084 18.9909C176.863 18.9909 177.588 19.1136 178.26 19.3589C178.943 19.6043 179.519 19.9563 179.988 20.4149L179.492 21.4229C178.959 20.9643 178.415 20.6336 177.86 20.4309C177.316 20.2176 176.724 20.1109 176.084 20.1109C175.21 20.1109 174.522 20.2976 174.02 20.6709C173.53 21.0336 173.284 21.5456 173.284 22.2069C173.284 22.7723 173.503 23.1989 173.94 23.4869C174.378 23.7749 175.039 24.0203 175.924 24.2229C176.895 24.4576 177.658 24.6763 178.212 24.8789C178.767 25.0709 179.226 25.3643 179.588 25.7589C179.962 26.1536 180.148 26.6816 180.148 27.3429C180.148 27.9829 179.978 28.5429 179.636 29.0229C179.306 29.5029 178.826 29.8763 178.196 30.1429C177.567 30.3989 176.831 30.5269 175.988 30.5269ZM187.464 30.5269C185.704 30.5269 184.296 30.0523 183.24 29.1029L183.752 28.0949C184.306 28.5643 184.872 28.9003 185.448 29.1029C186.034 29.3056 186.712 29.4069 187.48 29.4069C188.386 29.4069 189.085 29.2309 189.576 28.8789C190.066 28.5269 190.312 28.0309 190.312 27.3909C190.312 27.0176 190.194 26.7136 189.96 26.4789C189.725 26.2443 189.416 26.0576 189.032 25.9189C188.648 25.7803 188.13 25.6363 187.48 25.4869C186.605 25.2843 185.885 25.0709 185.32 24.8469C184.765 24.6229 184.312 24.3029 183.96 23.8869C183.618 23.4709 183.448 22.9269 183.448 22.2549C183.448 21.6149 183.613 21.0496 183.944 20.5589C184.285 20.0576 184.765 19.6736 185.384 19.4069C186.013 19.1296 186.738 18.9909 187.56 18.9909C188.338 18.9909 189.064 19.1136 189.736 19.3589C190.418 19.6043 190.994 19.9563 191.464 20.4149L190.968 21.4229C190.434 20.9643 189.89 20.6336 189.336 20.4309C188.792 20.2176 188.2 20.1109 187.56 20.1109C186.685 20.1109 185.997 20.2976 185.496 20.6709C185.005 21.0336 184.76 21.5456 184.76 22.2069C184.76 22.7723 184.978 23.1989 185.416 23.4869C185.853 23.7749 186.514 24.0203 187.4 24.2229C188.37 24.4576 189.133 24.6763 189.688 24.8789C190.242 25.0709 190.701 25.3643 191.064 25.7589C191.437 26.1536 191.624 26.6816 191.624 27.3429C191.624 27.9829 191.453 28.5429 191.112 29.0229C190.781 29.5029 190.301 29.8763 189.672 30.1429C189.042 30.3989 188.306 30.5269 187.464 30.5269Z" fill="white"/>
</svg>
