<svg width="172" height="47" viewBox="0 0 172 47" fill="none" xmlns="http://www.w3.org/2000/svg">
<path fill-rule="evenodd" clip-rule="evenodd" d="M36.8993 47H10.1007C4.52194 47 0 42.4787 0 36.9007V10.0993C0 4.52133 4.52194 0 10.1007 0H36.8993C42.4781 0 47 4.52133 47 10.0993V36.9007C47 42.4787 42.4781 47 36.8993 47Z" fill="#28101E"/>
<path fill-rule="evenodd" clip-rule="evenodd" d="M19.5167 24.0565L24.8243 34.5174C24.9205 34.6739 24.8628 34.8239 24.7087 34.8239H21.41C21.2046 34.8239 21.1083 34.7717 21.0121 34.5696C19.7991 32.0326 18.5669 29.3913 17.2962 26.6522H17.2577C16.1217 29.2413 14.8702 32.0522 13.6573 34.5891C13.561 34.7522 13.4712 34.8043 13.3171 34.8043H10.166C9.97988 34.8043 9.96062 34.6543 10.0569 34.5304L15.2489 24.3826L10.2238 14.287C10.1147 14.137 10.2238 14 10.3585 14H13.6188C13.8113 14 13.9012 14.0391 13.9589 14.2087C15.1526 16.7717 16.3656 19.3022 17.508 21.8783H17.5465C18.6439 19.3348 19.8569 16.7717 21.0121 14.2478C21.1083 14.0978 21.1661 14 21.3586 14H24.4071C24.5611 14 24.6125 14.1174 24.5226 14.287L19.5167 24.0565ZM25.9795 27.1804C25.9795 22.687 28.8225 19.1848 33.4883 19.1848C33.8862 19.1848 34.0916 19.1848 34.4766 19.2239V14.2087C34.4766 14.0978 34.5729 14.0196 34.6627 14.0196H37.7176C37.8652 14.0196 37.9037 14.0783 37.9037 14.1696V31.7848C37.9037 32.3065 37.9037 32.9522 38 33.6696C38 33.8 38 33.8261 37.8845 33.8848C36.2929 34.6543 34.6242 35 33.0326 35C28.9188 35 25.9795 32.4174 25.9795 27.1804ZM34.4766 22.25C34.1878 22.1065 33.8284 22.0478 33.3728 22.0478C30.9853 22.0478 29.3937 23.9196 29.3937 27.0239C29.3937 30.5652 31.0238 31.9935 33.1481 31.9935C33.6038 31.9935 34.0916 31.9348 34.4574 31.7848V22.25H34.4766Z" fill="#DA4C9B"/>
<path d="M85.768 27.5039H79.88L78.632 30.3999H77.288L82.248 19.1199H83.384L88.344 30.3999H87.016L85.768 27.5039ZM85.304 26.4159L82.824 20.6399L80.344 26.4159H85.304ZM91.617 19.1199H95.409C97.2117 19.1199 98.6037 19.6106 99.585 20.5919C100.577 21.5626 101.073 22.9492 101.073 24.7519C101.073 26.5546 100.577 27.9466 99.585 28.9279C98.6037 29.9092 97.2117 30.3999 95.409 30.3999H91.617V19.1199ZM95.329 29.2799C98.2517 29.2799 99.713 27.7706 99.713 24.7519C99.713 21.7439 98.2517 20.2399 95.329 20.2399H92.929V29.2799H95.329ZM109.765 30.5279C108.72 30.5279 107.808 30.2932 107.029 29.8239C106.261 29.3546 105.669 28.6879 105.253 27.8239C104.837 26.9599 104.629 25.9412 104.629 24.7679C104.629 23.5839 104.832 22.5599 105.237 21.6959C105.653 20.8212 106.245 20.1546 107.013 19.6959C107.792 19.2266 108.709 18.9919 109.765 18.9919C110.821 18.9919 111.733 19.2266 112.501 19.6959C113.28 20.1546 113.872 20.8212 114.277 21.6959C114.693 22.5599 114.901 23.5786 114.901 24.7519C114.901 25.9252 114.693 26.9492 114.277 27.8239C113.861 28.6879 113.264 29.3546 112.485 29.8239C111.717 30.2932 110.81 30.5279 109.765 30.5279ZM109.765 29.4079C110.96 29.4079 111.888 29.0079 112.549 28.2079C113.221 27.3972 113.557 26.2452 113.557 24.7519C113.557 23.2586 113.226 22.1119 112.565 21.3119C111.904 20.5119 110.97 20.1119 109.765 20.1119C108.57 20.1119 107.637 20.5172 106.965 21.3279C106.304 22.1279 105.973 23.2692 105.973 24.7519C105.973 26.2346 106.304 27.3812 106.965 28.1919C107.637 29.0026 108.57 29.4079 109.765 29.4079ZM125.264 24.6079C125.915 24.7786 126.416 25.0986 126.768 25.5679C127.131 26.0372 127.312 26.6239 127.312 27.3279C127.312 28.3199 126.987 29.0826 126.336 29.6159C125.685 30.1386 124.763 30.3999 123.568 30.3999H118.864V19.1199H123.392C124.555 19.1199 125.456 19.3759 126.096 19.8879C126.736 20.3999 127.056 21.1252 127.056 22.0639C127.056 22.6719 126.896 23.1946 126.576 23.6319C126.267 24.0692 125.829 24.3946 125.264 24.6079ZM120.16 24.1279H123.2C124.043 24.1279 124.677 23.9572 125.104 23.6159C125.541 23.2746 125.76 22.7786 125.76 22.1279C125.76 20.8479 124.907 20.2079 123.2 20.2079H120.16V24.1279ZM123.44 29.3119C124.325 29.3119 124.976 29.1519 125.392 28.8319C125.819 28.5012 126.032 27.9892 126.032 27.2959C126.032 25.9092 125.168 25.2159 123.44 25.2159H120.16V29.3119H123.44ZM131.245 19.1199H138.381V20.2079H132.541V24.1279H138.061V25.2159H132.541V29.3119H138.381V30.3999H131.245V19.1199ZM156.699 30.3999H155.147L151.659 25.6159L148.171 30.3999H146.619L150.907 24.6239L146.827 19.1199H148.379L151.675 23.6479L154.971 19.1199H156.507L152.411 24.6399L156.699 30.3999ZM159.826 19.1199H163.618C165.421 19.1199 166.813 19.6106 167.794 20.5919C168.786 21.5626 169.282 22.9492 169.282 24.7519C169.282 26.5546 168.786 27.9466 167.794 28.9279C166.813 29.9092 165.421 30.3999 163.618 30.3999H159.826V19.1199ZM163.538 29.2799C166.461 29.2799 167.922 27.7706 167.922 24.7519C167.922 21.7439 166.461 20.2399 163.538 20.2399H161.138V29.2799H163.538Z" fill="white"/>
</svg>
